<svg
  width="986"
  height="288"
  viewBox="0 0 986 288"
  fill="none"
  xmlns="http://www.w3.org/2000/svg"
>
  <style>
    * {
      transform-origin: center;
      transform-box: fill-box;
    }

    .animate-fade-in-left {
      animation: fade-in-left 0.64s cubic-bezier(0, 0, 0.2, 1) forwards;
    }

    .animate-fade-in-right {
      animation: fade-in-right 0.64s cubic-bezier(0, 0, 0.2, 1) forwards;
    }

    .animate-ping {
      animation: ping 1s cubic-bezier(0, 0, 0.2, 1) infinite;
    }

    .animate-spring {
      animation: spring 0.7s cubic-bezier(0.68, -0.55, 0.27, 1.55) forwards;
    }

    .title {
      opacity: 0;
      animation-delay: 0.1s;
    }

    .description .orbit {
      opacity: 0;
      animation-delay: 0.7s;
    }

    .planet {
      opacity: 0;
      animation-delay: 0.6s;
    }

    .sun {
      opacity: 0;
      animation-delay: 0.3s;
    }

    @keyframes fade-in-right {
      from {
        opacity: 0;
        transform: translate3d(-20px, 0, 0);
      }
      to {
        opacity: 1;
        transform: translate3d(0, 0, 0);
      }
    }

    @keyframes fade-in-left {
      from {
        opacity: 0;
        transform: translate3d(20px, 0, 0);
      }
      to {
        opacity: 1;
        transform: translate3d(0, 0, 0);
      }
    }

    @keyframes ping {
      75%,
      100% {
        opacity: 0;
        transform: scale(2);
      }
    }

    @keyframes spring {
      0% {
        opacity: 0;
        transform: scale(0);
      }
      60% {
        opacity: 1;
        transform: scale(1.05);
      }
      80% {
        opacity: 1;
        transform: scale(0.95);
      }
      100% {
        opacity: 1;
        transform: scale(1);
      }
    }
  </style>
  <g clip-path="url(#clip0_1035_966)">
    <!-- #region background -->
    <rect width="986" height="288" fill="#030308" />
    <!-- #endregion -->

    <!-- #region orbits -->
    <g class="animate-fade-in-left orbit">
      <g opacity="0.2" filter="url(#filter0_f_1035_966)">
        <circle cx="884.514" cy="144" r="248" fill="#05060F" />
        <circle
          cx="884.514"
          cy="144"
          r="248"
          stroke="#B1D0FC"
          stroke-width="20"
        />
      </g>
      <circle cx="884.514" cy="144" r="248" fill="#05060F" stroke="#B1D0FC" />
    </g>

    <g class="animate-fade-in-left orbit">
      <g opacity="0.2" filter="url(#filter1_f_1035_966)">
        <circle cx="891.842" cy="144.219" r="203.486" fill="#05060F" />
        <circle
          cx="891.842"
          cy="144.219"
          r="203.486"
          stroke="#B1D0FC"
          stroke-width="20"
        />
      </g>
      <circle
        cx="891.842"
        cy="144.219"
        r="203.486"
        fill="#05060F"
        stroke="#B1D0FC"
      />
    </g>

    <g class="animate-fade-in-left orbit">
      <g opacity="0.2" filter="url(#filter2_f_1035_966)">
        <circle cx="893.213" cy="144" r="156.18" fill="#05060F" />
        <circle
          cx="893.213"
          cy="144"
          r="156.18"
          stroke="#B1D0FC"
          stroke-width="20"
        />
      </g>
      <circle
        cx="893.213"
        cy="144"
        r="156.18"
        fill="#05060F"
        stroke="#B1D0FC"
      />
    </g>

    <g class="animate-fade-in-left orbit">
      <g opacity="0.2" filter="url(#filter3_f_1035_966)">
        <circle cx="893.213" cy="144" r="110.682" fill="#05060F" />
        <circle
          cx="893.213"
          cy="144"
          r="110.682"
          stroke="#B1D0FC"
          stroke-width="20"
        />
      </g>
      <circle
        cx="893.213"
        cy="144"
        r="110.682"
        fill="#05060F"
        stroke="#B1D0FC"
      />
    </g>
    <!-- #endregion -->

    <!-- #region sun -->
    <g class="animate-spring sun">
      <g filter="url(#filter4_i_1035_966)">
        <circle
          cx="893.914"
          cy="143.708"
          r="53.8099"
          fill="url(#paint0_radial_1035_966)"
        />
      </g>
      <circle
        cx="893.914"
        cy="143.708"
        r="54.8099"
        stroke="#B1D0FC"
        stroke-opacity="0.2"
        stroke-width="2"
      />
      <path
        d="M878.602 143.926C878.602 122.483 885.552 105.1 894.133 105.1C902.713 105.1 909.663 122.483 909.663 143.926C909.663 165.37 902.713 182.753 894.133 182.753C885.552 182.753 878.602 165.37 878.602 143.926Z"
        stroke="url(#paint1_radial_1035_966)"
        stroke-width="3"
        stroke-linecap="round"
        stroke-linejoin="round"
      />
      <path
        d="M886.27 130.803C905.07 120.079 923.831 117.408 928.172 124.835C932.512 132.263 920.795 146.978 901.995 157.698C883.195 168.418 864.434 171.093 860.094 163.662C855.753 156.234 867.471 141.527 886.27 130.803Z"
        stroke="url(#paint2_radial_1035_966)"
        stroke-width="3"
        stroke-linecap="round"
        stroke-linejoin="round"
      />
      <path
        d="M901.995 130.803C920.795 141.519 932.512 156.234 928.172 163.662C923.831 171.093 905.07 168.422 886.27 157.698C867.471 146.974 855.753 132.267 860.094 124.835C864.431 117.408 883.195 120.079 901.995 130.803Z"
        stroke="url(#paint3_radial_1035_966)"
        stroke-width="3"
        stroke-linecap="round"
        stroke-linejoin="round"
      />
      <path
        d="M899.957 143.926C899.957 145.471 899.343 146.952 898.251 148.044C897.159 149.137 895.677 149.75 894.133 149.75C892.588 149.75 891.107 149.137 890.015 148.044C888.922 146.952 888.309 145.471 888.309 143.926C888.309 142.382 888.922 140.9 890.015 139.808C891.107 138.716 892.588 138.102 894.133 138.102C895.677 138.102 897.159 138.716 898.251 139.808C899.343 140.9 899.957 142.382 899.957 143.926Z"
        stroke="url(#paint4_radial_1035_966)"
        stroke-width="3"
        stroke-linecap="round"
        stroke-linejoin="round"
      />
    </g>
    <!-- #endregion -->

    <!-- #region planets -->
    <g class="animate-spring planet" filter="url(#filter5_i_1035_966)">
      <rect
        x="694"
        y="229"
        width="52.5424"
        height="52.5424"
        rx="26.2712"
        fill="url(#paint5_linear_1035_966)"
      />
      <rect
        x="695"
        y="230"
        width="50.5424"
        height="50.5424"
        rx="25.2712"
        stroke="#B1D0FC"
        stroke-opacity="0.2"
        stroke-width="2"
      />
      <g clip-path="url(#clip1_1035_966)">
        <mask
          id="mask0_1035_966"
          style="mask-type: luminance"
          maskUnits="userSpaceOnUse"
          x="705"
          y="240"
          width="30"
          height="30"
        >
          <path
            d="M705.771 240.771H734.771V269.771H705.771V240.771Z"
            fill="white"
          />
        </mask>
        <g mask="url(#mask0_1035_966)">
          <path
            d="M732.741 242.54H708.153C708.072 242.54 707.992 242.555 707.918 242.586C707.843 242.617 707.776 242.662 707.719 242.72C707.662 242.777 707.617 242.844 707.586 242.919C707.555 242.993 707.539 243.073 707.54 243.154V267.742C707.539 267.823 707.555 267.903 707.586 267.978C707.617 268.052 707.662 268.12 707.719 268.177C707.776 268.234 707.844 268.279 707.919 268.31C707.993 268.341 708.073 268.357 708.154 268.357H732.742C732.823 268.357 732.903 268.341 732.978 268.31C733.052 268.279 733.12 268.234 733.177 268.177C733.234 268.12 733.279 268.052 733.31 267.978C733.341 267.903 733.357 267.823 733.357 267.742V243.153C733.357 243.072 733.341 242.992 733.31 242.918C733.279 242.843 733.233 242.775 733.176 242.718C733.119 242.661 733.051 242.616 732.977 242.586C732.902 242.555 732.822 242.539 732.741 242.54ZM722.907 256.336H719.833V265.897H717.374V256.336H714.301V254.218H722.907V256.336ZM723.595 265.35V262.795C723.595 262.795 724.991 263.847 726.666 263.847C728.341 263.847 728.276 262.752 728.276 262.602C728.276 261.013 723.53 261.013 723.53 257.491C723.53 252.702 730.446 254.592 730.446 254.592L730.36 256.869C730.36 256.869 729.2 256.095 727.89 256.095C726.58 256.095 726.108 256.719 726.108 257.384C726.108 259.102 730.897 258.931 730.897 262.388C730.897 267.712 723.595 265.351 723.595 265.351"
            fill="url(#paint6_linear_1035_966)"
          />
        </g>
      </g>
    </g>
    <g class="animate-spring planet" filter="url(#filter6_i_1035_966)">
      <rect
        x="723.384"
        y="163.616"
        width="33.6858"
        height="33.6858"
        rx="16.8429"
        fill="url(#paint7_linear_1035_966)"
      />
      <rect
        x="724.384"
        y="164.616"
        width="31.6858"
        height="31.6858"
        rx="15.8429"
        stroke="#B1D0FC"
        stroke-opacity="0.2"
        stroke-width="2"
      />
      <g clip-path="url(#clip2_1035_966)">
        <path
          d="M734.227 171.959H746.227V177.626H740.226L734.227 171.959ZM734.227 177.626H740.227L746.227 183.292H734.227L734.227 177.626ZM734.227 183.292H740.227V188.959L734.227 183.292Z"
          fill="url(#paint8_linear_1035_966)"
        />
      </g>
    </g>
    <g class="animate-spring planet" filter="url(#filter7_i_1035_966)">
      <rect
        x="738.797"
        y="29.8079"
        width="46.8102"
        height="46.8102"
        rx="23.4051"
        fill="url(#paint9_linear_1035_966)"
      />
      <rect
        x="739.797"
        y="30.8079"
        width="44.8102"
        height="44.8102"
        rx="22.4051"
        stroke="#B1D0FC"
        stroke-opacity="0.2"
        stroke-width="2"
      />
      <path
        d="M762.672 44.2185C758.748 44.2185 756.308 46.1883 755.323 50.1426C756.793 48.1728 758.513 47.4323 760.467 47.921C761.584 48.2024 762.392 49.017 763.274 49.9204C764.714 51.4014 766.346 53.1046 770.02 53.1046C773.944 53.1046 776.383 51.1348 777.368 47.1805C775.898 49.1503 774.179 49.8908 772.224 49.4021C771.107 49.1207 770.314 48.3061 769.417 47.4027C767.977 45.9217 766.346 44.2185 762.672 44.2185ZM755.323 53.1046C751.4 53.1046 748.96 55.0743 747.975 59.0286C749.445 57.0589 751.164 56.3184 753.119 56.8071C754.236 57.0885 755.03 57.9031 755.926 58.8065C757.366 60.2875 758.997 61.9907 762.672 61.9907C766.595 61.9907 769.035 60.0209 770.02 56.0666C768.55 58.0364 766.831 58.7769 764.876 58.2881C763.759 58.0067 762.965 57.1922 762.069 56.2888C760.629 54.8077 758.997 53.1046 755.323 53.1046Z"
        fill="url(#paint10_linear_1035_966)"
      />
    </g>
    <g class="animate-spring planet" filter="url(#filter8_i_1035_966)">
      <rect
        x="619"
        y="29.8079"
        width="56.8722"
        height="56.8722"
        rx="28.4361"
        fill="url(#paint11_linear_1035_966)"
      />
      <rect
        x="620"
        y="30.8079"
        width="54.8722"
        height="54.8722"
        rx="27.4361"
        stroke="#B1D0FC"
        stroke-opacity="0.2"
        stroke-width="2"
      />
      <path
        d="M655.49 72.8771C655.368 72.944 655.378 72.9653 655.496 72.9036C655.532 72.8886 655.565 72.8666 655.594 72.8388C655.594 72.8165 655.594 72.8165 655.49 72.8771ZM655.738 72.739C655.679 72.7889 655.679 72.7889 655.749 72.756C655.775 72.7427 655.798 72.7259 655.819 72.706C655.819 72.6773 655.803 72.6837 655.738 72.739ZM655.899 72.6391C655.84 72.689 655.84 72.689 655.91 72.6561C655.936 72.6425 655.959 72.6254 655.98 72.6051C655.98 72.5785 655.964 72.5838 655.899 72.6391ZM656.062 72.5403C656.003 72.5902 656.003 72.5902 656.071 72.5562C656.109 72.535 656.141 72.5126 656.141 72.5063C656.141 72.4797 656.125 72.485 656.062 72.5403ZM656.281 72.3905C656.169 72.468 656.13 72.518 656.233 72.4627C656.302 72.4191 656.42 72.3235 656.399 72.3235C656.355 72.3405 656.318 72.3692 656.281 72.3905ZM646.42 41.0078C646.345 41.0131 646.119 41.0344 645.921 41.0514C641.231 41.4891 636.843 44.0902 634.062 48.097C632.524 50.2939 631.525 52.8418 631.15 55.5229C631.016 56.4579 631 56.7342 631 58.0018C631 59.2683 631.016 59.5403 631.15 60.4753C632.048 66.8621 636.457 72.2236 642.434 74.2105C643.51 74.5644 644.637 74.8087 645.921 74.9586C646.42 75.0138 648.578 75.0138 649.077 74.9586C651.296 74.7036 653.17 74.1394 655.024 73.165C655.309 73.0163 655.363 72.977 655.324 72.944C654.42 71.7121 653.523 70.4742 652.634 69.2305L649.997 65.5616L646.694 60.52C645.595 58.8319 644.485 57.1516 643.364 55.4794C643.353 55.4794 643.339 57.7202 643.332 60.453C643.321 65.2397 643.321 65.4341 643.262 65.5446C643.206 65.6782 643.105 65.7865 642.978 65.8496C642.876 65.8995 642.784 65.9101 642.296 65.9101H641.738L641.593 65.8166C641.502 65.7562 641.428 65.6723 641.378 65.5733L641.308 65.4235L641.313 58.7604L641.325 52.0973L641.427 51.9645C641.493 51.8838 641.573 51.8164 641.663 51.7658C641.798 51.6989 641.852 51.6883 642.409 51.6883C643.064 51.6883 643.172 51.7148 643.345 51.9093C644.683 53.9598 646.009 56.0183 647.324 58.0847C649.468 61.4337 652.395 66.0036 653.833 68.2456L656.449 72.3246L656.578 72.2364C657.835 71.3749 658.975 70.344 659.966 69.171C662.044 66.7197 663.393 63.7033 663.85 60.4828C663.984 59.5477 664 59.2704 664 58.0039C664 56.7374 663.984 56.4654 663.85 55.5304C662.952 49.1435 658.543 43.7821 652.566 41.7941C651.449 41.4297 650.299 41.1816 649.134 41.0535C648.822 41.0206 646.689 40.9812 646.421 41.0099L646.42 41.0078ZM653.171 51.2898C653.248 51.3285 653.317 51.3827 653.373 51.4491C653.429 51.5155 653.471 51.5929 653.498 51.6766C653.526 51.7658 653.531 53.6136 653.526 57.7755L653.515 63.7511L652.495 62.1361L651.469 60.52V56.1817C651.469 53.3692 651.48 51.7924 651.494 51.7148C651.545 51.537 651.661 51.3864 651.817 51.2951C651.945 51.2282 651.995 51.2229 652.505 51.2229C652.982 51.2229 653.064 51.2282 653.171 51.2898Z"
        fill="url(#paint12_linear_1035_966)"
      />
    </g>
    <g class="animate-spring planet" filter="url(#filter9_i_1035_966)">
      <rect
        x="663.136"
        y="120.881"
        width="41.5605"
        height="41.5605"
        rx="20.7802"
        fill="url(#paint13_linear_1035_966)"
      />
      <rect
        x="664.136"
        y="121.881"
        width="39.5605"
        height="39.5605"
        rx="19.7802"
        stroke="#B1D0FC"
        stroke-opacity="0.2"
        stroke-width="2"
      />
      <path
        d="M674.189 146.473C674.067 146.284 674.002 146.065 674 145.842C673.998 145.618 674.06 145.399 674.179 145.208L683.355 130.57C683.471 130.385 683.636 130.235 683.832 130.135C684.028 130.035 684.248 129.989 684.469 130.002C684.69 130.015 684.903 130.086 685.085 130.208C685.268 130.33 685.413 130.498 685.506 130.694L693.888 148.478C693.961 148.633 693.999 148.802 694 148.973C694.001 149.144 693.964 149.313 693.892 149.469C693.82 149.624 693.715 149.763 693.583 149.876C693.452 149.989 693.297 150.072 693.13 150.122L680.091 153.95C679.835 154.024 679.562 154.016 679.313 153.925C679.063 153.834 678.851 153.666 678.708 153.446L674.189 146.473ZM684.414 134.85L681.187 150.567C681.172 150.643 681.177 150.721 681.201 150.794C681.226 150.868 681.269 150.934 681.327 150.986C681.386 151.038 681.457 151.074 681.534 151.091C681.611 151.109 681.691 151.106 681.766 151.084L690.776 148.454C690.838 148.436 690.895 148.405 690.944 148.364C690.993 148.322 691.033 148.271 691.06 148.214C691.087 148.157 691.102 148.094 691.103 148.031C691.104 147.967 691.091 147.905 691.065 147.847L685.284 134.761C685.246 134.673 685.18 134.598 685.095 134.549C685.011 134.501 684.912 134.48 684.815 134.49C684.717 134.499 684.625 134.54 684.553 134.605C684.481 134.67 684.433 134.756 684.414 134.85Z"
        fill="url(#paint14_linear_1035_966)"
      />
    </g>
    <g class="animate-spring planet" filter="url(#filter10_i_1035_966)">
      <rect
        x="894.322"
        y="235.774"
        width="37.6232"
        height="37.6232"
        rx="18.8116"
        fill="url(#paint15_linear_1035_966)"
      />
      <rect
        x="895.322"
        y="236.774"
        width="35.6232"
        height="35.6232"
        rx="17.8116"
        stroke="#B1D0FC"
        stroke-opacity="0.2"
        stroke-width="2"
      />
      <path
        d="M902.682 253.877L909.334 247.214L911.279 249.17C911.003 250.148 911.451 251.219 912.349 251.737V258.112C911.659 258.504 911.198 259.252 911.198 260.103C911.198 260.714 911.441 261.299 911.872 261.731C912.304 262.163 912.89 262.405 913.5 262.405C914.11 262.405 914.696 262.163 915.128 261.731C915.559 261.299 915.802 260.714 915.802 260.103C915.802 259.252 915.341 258.504 914.651 258.112V252.519L917.033 254.925C916.953 255.097 916.953 255.293 916.953 255.5C916.953 256.11 917.195 256.696 917.627 257.128C918.058 257.559 918.644 257.802 919.254 257.802C919.865 257.802 920.45 257.559 920.882 257.128C921.314 256.696 921.556 256.11 921.556 255.5C921.556 254.89 921.314 254.304 920.882 253.872C920.45 253.441 919.865 253.198 919.254 253.198C919.047 253.198 918.852 253.198 918.679 253.279L915.721 250.321C915.864 249.788 915.809 249.221 915.565 248.726C915.322 248.231 914.907 247.841 914.398 247.628C913.903 247.444 913.385 247.398 912.925 247.525L910.968 245.58L911.877 244.682C912.775 243.773 914.225 243.773 915.123 244.682L924.318 253.877C925.227 254.775 925.227 256.225 924.318 257.123L915.123 266.318C914.225 267.227 912.775 267.227 911.877 266.318L902.682 257.123C901.773 256.225 901.773 254.775 902.682 253.877Z"
        fill="url(#paint16_linear_1035_966)"
      />
    </g>
    <!-- #endregion -->

    <!-- #region title -->
    <g class="animate-fade-in-right title" filter="url(#filter11_d_1035_966)">
      <path
        d="M60.0768 178V130.32H68.7808V170.32H89.1968V178H60.0768ZM106.539 178.768C103.851 178.768 101.504 178.171 99.4988 176.976C97.5361 175.781 96.0214 174.117 94.9548 171.984C93.9308 169.851 93.4188 167.355 93.4188 164.496V143.184H101.803V163.792C101.803 165.243 102.08 166.523 102.635 167.632C103.232 168.699 104.064 169.552 105.131 170.192C106.24 170.789 107.477 171.088 108.843 171.088C110.208 171.088 111.424 170.789 112.491 170.192C113.557 169.552 114.389 168.677 114.987 167.568C115.584 166.459 115.883 165.136 115.883 163.6V143.184H124.267V178H116.331V171.152L117.035 172.368C116.224 174.501 114.88 176.101 113.003 177.168C111.168 178.235 109.013 178.768 106.539 178.768ZM132.06 178V143.184H140.444V178H132.06ZM132.06 139.28V130.32H140.444V139.28H132.06ZM161.433 178.768C157.721 178.768 154.479 177.893 151.705 176.144C148.975 174.352 147.097 171.941 146.073 168.912L152.345 165.904C153.241 167.867 154.479 169.403 156.057 170.512C157.679 171.621 159.471 172.176 161.433 172.176C162.969 172.176 164.185 171.835 165.081 171.152C165.977 170.469 166.425 169.573 166.425 168.464C166.425 167.781 166.233 167.227 165.849 166.8C165.508 166.331 165.017 165.947 164.377 165.648C163.78 165.307 163.119 165.029 162.393 164.816L156.697 163.216C153.753 162.363 151.513 161.061 149.977 159.312C148.484 157.563 147.737 155.493 147.737 153.104C147.737 150.971 148.271 149.115 149.337 147.536C150.447 145.915 151.961 144.656 153.881 143.76C155.844 142.864 158.084 142.416 160.601 142.416C163.887 142.416 166.788 143.205 169.305 144.784C171.823 146.363 173.615 148.581 174.681 151.44L168.281 154.448C167.684 152.869 166.681 151.611 165.273 150.672C163.865 149.733 162.287 149.264 160.537 149.264C159.129 149.264 158.02 149.584 157.209 150.224C156.399 150.864 155.993 151.696 155.993 152.72C155.993 153.36 156.164 153.915 156.505 154.384C156.847 154.853 157.316 155.237 157.913 155.536C158.553 155.835 159.279 156.112 160.089 156.368L165.657 158.032C168.516 158.885 170.713 160.165 172.249 161.872C173.828 163.579 174.617 165.669 174.617 168.144C174.617 170.235 174.063 172.091 172.953 173.712C171.844 175.291 170.308 176.528 168.345 177.424C166.383 178.32 164.079 178.768 161.433 178.768ZM189.235 178L205.683 130.32H216.947L233.395 178H223.923L220.531 167.76H202.099L198.643 178H189.235ZM204.595 160.08H218.035L210.099 136.336H212.531L204.595 160.08ZM237.998 178V143.184H245.87V150.032L245.23 148.816C246.04 146.725 247.363 145.147 249.198 144.08C251.075 142.971 253.251 142.416 255.726 142.416C258.286 142.416 260.547 142.971 262.51 144.08C264.515 145.189 266.072 146.747 267.182 148.752C268.291 150.715 268.846 152.997 268.846 155.6V178H260.462V157.584C260.462 156.048 260.163 154.725 259.566 153.616C258.968 152.507 258.136 151.653 257.07 151.056C256.046 150.416 254.83 150.096 253.422 150.096C252.056 150.096 250.84 150.416 249.774 151.056C248.707 151.653 247.875 152.507 247.278 153.616C246.68 154.725 246.382 156.048 246.382 157.584V178H237.998ZM292.831 192.08C290.229 192.08 287.818 191.653 285.599 190.8C283.381 189.947 281.461 188.752 279.839 187.216C278.261 185.723 277.109 183.952 276.383 181.904L284.191 178.96C284.703 180.581 285.706 181.883 287.199 182.864C288.735 183.888 290.613 184.4 292.831 184.4C294.538 184.4 296.031 184.08 297.311 183.44C298.634 182.8 299.658 181.861 300.383 180.624C301.109 179.429 301.471 177.979 301.471 176.272V168.336L303.071 170.256C301.877 172.347 300.277 173.925 298.271 174.992C296.266 176.059 293.983 176.592 291.423 176.592C288.181 176.592 285.279 175.845 282.719 174.352C280.159 172.859 278.154 170.811 276.703 168.208C275.253 165.605 274.527 162.683 274.527 159.44C274.527 156.155 275.253 153.232 276.703 150.672C278.154 148.112 280.138 146.107 282.655 144.656C285.173 143.163 288.031 142.416 291.231 142.416C293.834 142.416 296.117 142.971 298.079 144.08C300.085 145.147 301.749 146.704 303.071 148.752L301.919 150.864V143.184H309.855V176.272C309.855 179.301 309.109 182.011 307.615 184.4C306.165 186.789 304.159 188.667 301.599 190.032C299.082 191.397 296.159 192.08 292.831 192.08ZM292.447 168.848C294.239 168.848 295.797 168.464 297.119 167.696C298.485 166.885 299.551 165.776 300.319 164.368C301.087 162.96 301.471 161.339 301.471 159.504C301.471 157.712 301.066 156.112 300.255 154.704C299.487 153.253 298.421 152.123 297.055 151.312C295.733 150.501 294.197 150.096 292.447 150.096C290.698 150.096 289.119 150.501 287.711 151.312C286.303 152.123 285.194 153.253 284.383 154.704C283.615 156.112 283.231 157.712 283.231 159.504C283.231 161.296 283.615 162.896 284.383 164.304C285.194 165.712 286.282 166.821 287.647 167.632C289.055 168.443 290.655 168.848 292.447 168.848ZM334.197 178.768C330.613 178.768 327.477 177.957 324.789 176.336C322.101 174.715 320.011 172.517 318.517 169.744C317.024 166.971 316.277 163.899 316.277 160.528C316.277 157.029 317.024 153.936 318.517 151.248C320.053 148.517 322.123 146.363 324.725 144.784C327.371 143.205 330.315 142.416 333.557 142.416C336.288 142.416 338.677 142.864 340.725 143.76C342.816 144.656 344.587 145.893 346.037 147.472C347.488 149.051 348.597 150.864 349.365 152.912C350.133 154.917 350.517 157.093 350.517 159.44C350.517 160.037 350.475 160.656 350.389 161.296C350.347 161.936 350.24 162.491 350.069 162.96H323.189V156.56H345.333L341.365 159.568C341.749 157.605 341.643 155.856 341.045 154.32C340.491 152.784 339.552 151.568 338.229 150.672C336.949 149.776 335.392 149.328 333.557 149.328C331.808 149.328 330.251 149.776 328.885 150.672C327.52 151.525 326.475 152.805 325.749 154.512C325.067 156.176 324.811 158.203 324.981 160.592C324.811 162.725 325.088 164.624 325.813 166.288C326.581 167.909 327.691 169.168 329.141 170.064C330.635 170.96 332.341 171.408 334.261 171.408C336.181 171.408 337.803 171.003 339.125 170.192C340.491 169.381 341.557 168.293 342.325 166.928L349.109 170.256C348.427 171.92 347.36 173.392 345.909 174.672C344.459 175.952 342.731 176.955 340.725 177.68C338.763 178.405 336.587 178.768 334.197 178.768ZM356.873 178V129.552H365.257V178H356.873ZM390.022 178.768C386.608 178.768 383.494 177.979 380.678 176.4C377.904 174.821 375.686 172.667 374.022 169.936C372.4 167.205 371.59 164.091 371.59 160.592C371.59 157.093 372.4 153.979 374.022 151.248C375.686 148.517 377.904 146.363 380.678 144.784C383.451 143.205 386.566 142.416 390.022 142.416C393.435 142.416 396.528 143.205 399.302 144.784C402.075 146.363 404.272 148.517 405.894 151.248C407.558 153.936 408.39 157.051 408.39 160.592C408.39 164.091 407.558 167.205 405.894 169.936C404.23 172.667 402.011 174.821 399.238 176.4C396.464 177.979 393.392 178.768 390.022 178.768ZM390.022 171.088C391.899 171.088 393.542 170.64 394.95 169.744C396.4 168.848 397.531 167.611 398.342 166.032C399.195 164.411 399.622 162.597 399.622 160.592C399.622 158.544 399.195 156.752 398.342 155.216C397.531 153.637 396.4 152.4 394.95 151.504C393.542 150.565 391.899 150.096 390.022 150.096C388.102 150.096 386.416 150.565 384.966 151.504C383.515 152.4 382.363 153.637 381.51 155.216C380.699 156.752 380.294 158.544 380.294 160.592C380.294 162.597 380.699 164.411 381.51 166.032C382.363 167.611 383.515 168.848 384.966 169.744C386.416 170.64 388.102 171.088 390.022 171.088ZM426.827 178V130.32H458.635V138H435.531V151.184H455.755V158.864H435.531V178H426.827ZM461.685 178V143.184H469.557V150.928L468.917 149.776C469.728 147.173 470.987 145.36 472.693 144.336C474.443 143.312 476.533 142.8 478.965 142.8H481.013V150.224H478.005C475.616 150.224 473.696 150.971 472.245 152.464C470.795 153.915 470.069 155.963 470.069 158.608V178H461.685ZM498.039 178.768C495.351 178.768 493.004 178.171 490.999 176.976C489.036 175.781 487.521 174.117 486.455 171.984C485.431 169.851 484.919 167.355 484.919 164.496V143.184H493.303V163.792C493.303 165.243 493.58 166.523 494.135 167.632C494.732 168.699 495.564 169.552 496.631 170.192C497.74 170.789 498.977 171.088 500.343 171.088C501.708 171.088 502.924 170.789 503.991 170.192C505.057 169.552 505.889 168.677 506.487 167.568C507.084 166.459 507.383 165.136 507.383 163.6V143.184H515.767V178H507.831V171.152L508.535 172.368C507.724 174.501 506.38 176.101 504.503 177.168C502.668 178.235 500.513 178.768 498.039 178.768ZM539.432 178.384C535.507 178.384 532.456 177.317 530.28 175.184C528.147 173.008 527.08 169.957 527.08 166.032V150.672H521.064V143.184H521.704C523.411 143.184 524.734 142.736 525.672 141.84C526.611 140.944 527.08 139.643 527.08 137.936V135.248H535.464V143.184H543.464V150.672H535.464V165.584C535.464 166.736 535.656 167.717 536.04 168.528C536.467 169.339 537.107 169.957 537.96 170.384C538.856 170.811 539.987 171.024 541.352 171.024C541.651 171.024 541.992 171.003 542.376 170.96C542.803 170.917 543.208 170.875 543.592 170.832V178C542.995 178.085 542.312 178.171 541.544 178.256C540.776 178.341 540.072 178.384 539.432 178.384ZM566.709 178.768C563.296 178.768 560.181 177.979 557.365 176.4C554.592 174.821 552.373 172.667 550.709 169.936C549.088 167.205 548.277 164.091 548.277 160.592C548.277 157.093 549.088 153.979 550.709 151.248C552.373 148.517 554.592 146.363 557.365 144.784C560.139 143.205 563.253 142.416 566.709 142.416C570.123 142.416 573.216 143.205 575.989 144.784C578.763 146.363 580.96 148.517 582.581 151.248C584.245 153.936 585.077 157.051 585.077 160.592C585.077 164.091 584.245 167.205 582.581 169.936C580.917 172.667 578.699 174.821 575.925 176.4C573.152 177.979 570.08 178.768 566.709 178.768ZM566.709 171.088C568.587 171.088 570.229 170.64 571.637 169.744C573.088 168.848 574.219 167.611 575.029 166.032C575.883 164.411 576.309 162.597 576.309 160.592C576.309 158.544 575.883 156.752 575.029 155.216C574.219 153.637 573.088 152.4 571.637 151.504C570.229 150.565 568.587 150.096 566.709 150.096C564.789 150.096 563.104 150.565 561.653 151.504C560.203 152.4 559.051 153.637 558.197 155.216C557.387 156.752 556.981 158.544 556.981 160.592C556.981 162.597 557.387 164.411 558.197 166.032C559.051 167.611 560.203 168.848 561.653 169.744C563.104 170.64 564.789 171.088 566.709 171.088Z"
        fill="url(#paint17_linear_1035_966)"
      />
    </g>
    <!-- #endregion -->

    <!-- #region profession -->
    <path
      class="animate-fade-in-right description"
      d="M60.1918 112V98.9091H67.7663V99.983H61.3871V104.911H67.1719V105.985H61.3871V112H60.1918ZM76.1255 108.248V102.182H77.2633V112H76.1255V110.37H76.036C75.8059 110.873 75.4416 111.293 74.943 111.629C74.4444 111.962 73.835 112.128 73.1149 112.128C72.4885 112.128 71.9324 111.991 71.4466 111.719C70.9608 111.442 70.5794 111.037 70.3024 110.504C70.0254 109.972 69.8869 109.317 69.8869 108.542V102.182H71.0247V108.472C71.0247 109.239 71.2505 109.857 71.7022 110.325C72.1539 110.79 72.7335 111.022 73.4409 111.022C73.8841 111.022 74.3102 110.915 74.7193 110.702C75.1284 110.489 75.465 110.178 75.7292 109.769C75.9934 109.356 76.1255 108.849 76.1255 108.248ZM81.4134 98.9091V112H80.2756V98.9091H81.4134ZM85.5618 98.9091V112H84.424V98.9091H85.5618ZM93.8714 105.851V106.925H88.4254V105.851H93.8714ZM103.325 104.336L102.283 104.63C102.181 104.336 102.036 104.07 101.849 103.831C101.661 103.592 101.416 103.403 101.114 103.262C100.815 103.121 100.445 103.051 100.001 103.051C99.3366 103.051 98.7912 103.209 98.3651 103.524C97.9389 103.839 97.7259 104.246 97.7259 104.745C97.7259 105.167 97.8707 105.51 98.1605 105.774C98.4545 106.034 98.9062 106.241 99.5156 106.394L100.999 106.759C101.821 106.959 102.437 107.276 102.846 107.711C103.259 108.146 103.466 108.691 103.466 109.347C103.466 109.901 103.313 110.393 103.006 110.824C102.699 111.254 102.271 111.593 101.721 111.84C101.175 112.083 100.543 112.205 99.8224 112.205C98.8636 112.205 98.0732 111.989 97.451 111.559C96.8288 111.124 96.4304 110.498 96.2557 109.68L97.3487 109.411C97.4893 109.995 97.7642 110.436 98.1733 110.734C98.5866 111.033 99.13 111.182 99.8033 111.182C100.558 111.182 101.161 111.013 101.612 110.677C102.064 110.336 102.29 109.91 102.29 109.398C102.29 109.002 102.158 108.67 101.893 108.401C101.629 108.129 101.229 107.928 100.692 107.8L99.0874 107.417C98.2351 107.212 97.6044 106.888 97.1953 106.445C96.7862 106.002 96.5817 105.452 96.5817 104.796C96.5817 104.255 96.7287 103.78 97.0227 103.371C97.3168 102.957 97.7216 102.634 98.2372 102.399C98.7528 102.165 99.3409 102.048 100.001 102.048C100.901 102.048 101.619 102.252 102.156 102.661C102.697 103.066 103.087 103.624 103.325 104.336ZM109.824 102.182V103.173H105.139V102.182H109.824ZM106.603 99.8295H107.747V109.437C107.747 109.846 107.817 110.168 107.958 110.402C108.099 110.632 108.282 110.796 108.508 110.894C108.733 110.988 108.974 111.035 109.23 111.035C109.379 111.035 109.507 111.026 109.613 111.009C109.72 110.988 109.814 110.967 109.895 110.945L110.138 111.974C110.027 112.017 109.89 112.055 109.729 112.089C109.567 112.128 109.366 112.147 109.128 112.147C108.71 112.147 108.307 112.055 107.92 111.872C107.536 111.689 107.221 111.416 106.974 111.054C106.726 110.692 106.603 110.242 106.603 109.705V99.8295ZM115.151 112.224C114.558 112.224 114.017 112.109 113.527 111.879C113.037 111.644 112.647 111.308 112.357 110.869C112.067 110.425 111.923 109.888 111.923 109.258C111.923 108.772 112.014 108.363 112.197 108.031C112.381 107.698 112.641 107.425 112.977 107.212C113.314 106.999 113.712 106.831 114.173 106.707C114.633 106.584 115.14 106.488 115.694 106.42C116.244 106.352 116.708 106.292 117.087 106.241C117.471 106.19 117.763 106.109 117.963 105.998C118.163 105.887 118.263 105.708 118.263 105.461V105.231C118.263 104.562 118.063 104.036 117.663 103.652C117.266 103.264 116.695 103.07 115.95 103.07C115.242 103.07 114.665 103.226 114.217 103.537C113.774 103.848 113.463 104.214 113.284 104.636L112.204 104.246C112.425 103.71 112.732 103.281 113.124 102.962C113.516 102.638 113.955 102.406 114.441 102.265C114.927 102.12 115.419 102.048 115.918 102.048C116.293 102.048 116.683 102.097 117.087 102.195C117.496 102.293 117.876 102.463 118.225 102.706C118.575 102.945 118.858 103.279 119.075 103.71C119.293 104.136 119.401 104.677 119.401 105.333V112H118.263V110.447H118.193C118.057 110.737 117.854 111.018 117.586 111.29C117.317 111.563 116.981 111.787 116.576 111.962C116.171 112.136 115.696 112.224 115.151 112.224ZM115.304 111.182C115.909 111.182 116.433 111.048 116.876 110.779C117.32 110.511 117.661 110.155 117.899 109.712C118.142 109.264 118.263 108.772 118.263 108.235V106.816C118.178 106.897 118.036 106.969 117.835 107.033C117.639 107.097 117.411 107.155 117.151 107.206C116.896 107.253 116.64 107.293 116.384 107.327C116.129 107.362 115.898 107.391 115.694 107.417C115.14 107.485 114.667 107.592 114.275 107.737C113.883 107.881 113.582 108.082 113.374 108.337C113.165 108.589 113.06 108.913 113.06 109.309C113.06 109.906 113.273 110.368 113.7 110.696C114.126 111.02 114.661 111.182 115.304 111.182ZM126.263 112.205C125.385 112.205 124.62 111.985 123.968 111.546C123.321 111.107 122.818 110.506 122.46 109.744C122.102 108.981 121.923 108.112 121.923 107.136C121.923 106.151 122.104 105.276 122.466 104.509C122.833 103.741 123.34 103.141 123.988 102.706C124.635 102.267 125.387 102.048 126.244 102.048C126.9 102.048 127.495 102.175 128.027 102.431C128.56 102.683 128.999 103.038 129.344 103.499C129.694 103.955 129.913 104.487 130.002 105.097H128.852C128.733 104.543 128.445 104.07 127.989 103.678C127.537 103.281 126.962 103.083 126.263 103.083C125.637 103.083 125.083 103.254 124.601 103.594C124.12 103.931 123.743 104.402 123.47 105.007C123.201 105.608 123.067 106.305 123.067 107.097C123.067 107.894 123.199 108.599 123.463 109.213C123.728 109.822 124.098 110.3 124.576 110.645C125.057 110.99 125.62 111.163 126.263 111.163C126.698 111.163 127.094 111.082 127.452 110.92C127.814 110.754 128.117 110.519 128.36 110.217C128.607 109.914 128.773 109.554 128.858 109.136H130.009C129.924 109.729 129.713 110.257 129.376 110.722C129.044 111.182 128.611 111.544 128.078 111.808C127.55 112.072 126.945 112.205 126.263 112.205ZM133.483 108.293L133.47 106.803H133.726L138.328 102.182H139.766L135.222 106.733L135.119 106.752L133.483 108.293ZM132.447 112V98.9091H133.585V112H132.447ZM138.565 112L134.576 106.957L135.394 106.17L140.022 112H138.565ZM151.039 112H147.203V98.9091H151.269C152.517 98.9091 153.585 99.169 154.471 99.6889C155.362 100.209 156.044 100.955 156.517 101.926C156.99 102.898 157.226 104.063 157.226 105.423C157.226 106.795 156.983 107.973 156.498 108.957C156.016 109.937 155.313 110.69 154.388 111.214C153.468 111.738 152.351 112 151.039 112ZM148.399 110.926H150.968C152.093 110.926 153.035 110.705 153.794 110.261C154.552 109.818 155.121 109.185 155.5 108.363C155.88 107.54 156.069 106.56 156.069 105.423C156.065 104.293 155.877 103.322 155.507 102.508C155.14 101.694 154.595 101.07 153.87 100.635C153.15 100.2 152.26 99.983 151.199 99.983H148.399V110.926ZM163.856 112.205C162.94 112.205 162.148 111.991 161.479 111.565C160.809 111.135 160.292 110.54 159.925 109.782C159.563 109.019 159.382 108.141 159.382 107.148C159.382 106.16 159.563 105.282 159.925 104.515C160.292 103.744 160.797 103.141 161.44 102.706C162.088 102.267 162.836 102.048 163.684 102.048C164.216 102.048 164.73 102.146 165.224 102.342C165.719 102.533 166.162 102.83 166.554 103.23C166.95 103.626 167.263 104.127 167.493 104.732C167.724 105.333 167.839 106.045 167.839 106.867V107.43H160.168V106.426H166.675C166.675 105.795 166.547 105.229 166.292 104.726C166.04 104.219 165.689 103.818 165.237 103.524C164.79 103.23 164.272 103.083 163.684 103.083C163.062 103.083 162.514 103.249 162.041 103.582C161.568 103.914 161.197 104.353 160.929 104.898C160.665 105.444 160.53 106.04 160.526 106.688V107.289C160.526 108.069 160.66 108.751 160.929 109.335C161.202 109.914 161.587 110.364 162.086 110.683C162.584 111.003 163.175 111.163 163.856 111.163C164.321 111.163 164.728 111.09 165.077 110.945C165.431 110.8 165.727 110.607 165.966 110.364C166.209 110.116 166.392 109.846 166.515 109.552L167.596 109.903C167.447 110.317 167.202 110.698 166.861 111.048C166.524 111.397 166.102 111.678 165.595 111.891C165.092 112.1 164.513 112.205 163.856 112.205ZM177.647 102.182L174.061 112H172.847L169.261 102.182H170.494L173.409 110.498H173.499L176.414 102.182H177.647ZM183.491 112.205C182.575 112.205 181.782 111.991 181.113 111.565C180.444 111.135 179.926 110.54 179.56 109.782C179.198 109.019 179.017 108.141 179.017 107.148C179.017 106.16 179.198 105.282 179.56 104.515C179.926 103.744 180.431 103.141 181.075 102.706C181.723 102.267 182.471 102.048 183.319 102.048C183.851 102.048 184.365 102.146 184.859 102.342C185.353 102.533 185.797 102.83 186.189 103.23C186.585 103.626 186.898 104.127 187.128 104.732C187.358 105.333 187.473 106.045 187.473 106.867V107.43H179.803V106.426H186.31C186.31 105.795 186.182 105.229 185.926 104.726C185.675 104.219 185.324 103.818 184.872 103.524C184.424 103.23 183.907 103.083 183.319 103.083C182.696 103.083 182.149 103.249 181.676 103.582C181.203 103.914 180.832 104.353 180.564 104.898C180.299 105.444 180.165 106.04 180.161 106.688V107.289C180.161 108.069 180.295 108.751 180.564 109.335C180.836 109.914 181.222 110.364 181.721 110.683C182.219 111.003 182.809 111.163 183.491 111.163C183.956 111.163 184.363 111.09 184.712 110.945C185.066 110.8 185.362 110.607 185.6 110.364C185.843 110.116 186.027 109.846 186.15 109.552L187.23 109.903C187.081 110.317 186.836 110.698 186.495 111.048C186.159 111.397 185.737 111.678 185.23 111.891C184.727 112.1 184.147 112.205 183.491 112.205ZM191.118 98.9091V112H189.981V98.9091H191.118ZM197.945 112.205C197.097 112.205 196.347 111.989 195.695 111.559C195.047 111.129 194.54 110.534 194.174 109.776C193.807 109.013 193.624 108.133 193.624 107.136C193.624 106.13 193.807 105.246 194.174 104.483C194.54 103.716 195.047 103.119 195.695 102.693C196.347 102.263 197.097 102.048 197.945 102.048C198.793 102.048 199.541 102.263 200.189 102.693C200.836 103.124 201.344 103.72 201.71 104.483C202.081 105.246 202.266 106.13 202.266 107.136C202.266 108.133 202.083 109.013 201.716 109.776C201.35 110.534 200.841 111.129 200.189 111.559C199.541 111.989 198.793 112.205 197.945 112.205ZM197.945 111.163C198.627 111.163 199.204 110.979 199.677 110.613C200.15 110.246 200.508 109.759 200.751 109.149C200.998 108.54 201.122 107.869 201.122 107.136C201.122 106.403 200.998 105.729 200.751 105.116C200.508 104.502 200.15 104.01 199.677 103.639C199.204 103.268 198.627 103.083 197.945 103.083C197.268 103.083 196.69 103.268 196.213 103.639C195.74 104.01 195.38 104.502 195.133 105.116C194.89 105.729 194.768 106.403 194.768 107.136C194.768 107.869 194.89 108.54 195.133 109.149C195.38 109.759 195.74 110.246 196.213 110.613C196.686 110.979 197.263 111.163 197.945 111.163ZM204.764 115.682V102.182H205.87V104.055H206.004C206.14 103.761 206.328 103.46 206.566 103.153C206.805 102.842 207.12 102.58 207.512 102.367C207.909 102.154 208.407 102.048 209.008 102.048C209.818 102.048 210.525 102.261 211.13 102.687C211.74 103.109 212.213 103.701 212.549 104.464C212.89 105.222 213.061 106.107 213.061 107.116C213.061 108.131 212.89 109.019 212.549 109.782C212.213 110.545 211.74 111.139 211.13 111.565C210.525 111.991 209.822 112.205 209.021 112.205C208.429 112.205 207.932 112.098 207.532 111.885C207.135 111.672 206.814 111.41 206.566 111.099C206.324 110.783 206.136 110.477 206.004 110.178H205.902V115.682H204.764ZM205.889 107.097C205.889 107.89 206.006 108.593 206.24 109.207C206.479 109.816 206.82 110.295 207.263 110.645C207.711 110.99 208.252 111.163 208.887 111.163C209.539 111.163 210.088 110.984 210.536 110.626C210.988 110.263 211.331 109.776 211.565 109.162C211.804 108.548 211.923 107.86 211.923 107.097C211.923 106.343 211.806 105.663 211.571 105.058C211.341 104.453 211 103.974 210.549 103.62C210.097 103.262 209.543 103.083 208.887 103.083C208.248 103.083 207.704 103.256 207.257 103.601C206.809 103.942 206.468 104.415 206.234 105.02C206.004 105.621 205.889 106.313 205.889 107.097ZM219.526 112.205C218.61 112.205 217.817 111.991 217.148 111.565C216.479 111.135 215.962 110.54 215.595 109.782C215.233 109.019 215.052 108.141 215.052 107.148C215.052 106.16 215.233 105.282 215.595 104.515C215.962 103.744 216.467 103.141 217.11 102.706C217.758 102.267 218.506 102.048 219.354 102.048C219.886 102.048 220.4 102.146 220.894 102.342C221.388 102.533 221.832 102.83 222.224 103.23C222.62 103.626 222.933 104.127 223.163 104.732C223.393 105.333 223.509 106.045 223.509 106.867V107.43H215.838V106.426H222.345C222.345 105.795 222.217 105.229 221.962 104.726C221.71 104.219 221.359 103.818 220.907 103.524C220.46 103.23 219.942 103.083 219.354 103.083C218.732 103.083 218.184 103.249 217.711 103.582C217.238 103.914 216.867 104.353 216.599 104.898C216.335 105.444 216.2 106.04 216.196 106.688V107.289C216.196 108.069 216.33 108.751 216.599 109.335C216.871 109.914 217.257 110.364 217.756 110.683C218.254 111.003 218.844 111.163 219.526 111.163C219.991 111.163 220.398 111.09 220.747 110.945C221.101 110.8 221.397 110.607 221.636 110.364C221.879 110.116 222.062 109.846 222.185 109.552L223.266 109.903C223.116 110.317 222.871 110.698 222.531 111.048C222.194 111.397 221.772 111.678 221.265 111.891C220.762 112.1 220.183 112.205 219.526 112.205ZM226.016 112V102.182H227.122V103.69H227.205C227.401 103.196 227.742 102.798 228.227 102.495C228.718 102.188 229.271 102.035 229.889 102.035C229.983 102.035 230.088 102.037 230.203 102.041C230.318 102.045 230.414 102.05 230.49 102.054V103.211C230.439 103.202 230.35 103.19 230.222 103.173C230.094 103.156 229.955 103.147 229.806 103.147C229.295 103.147 228.839 103.256 228.438 103.473C228.042 103.686 227.729 103.982 227.499 104.362C227.269 104.741 227.154 105.173 227.154 105.659V112H226.016ZM239.265 94.6903V116.219H238.274V94.6903H239.265Z"
      fill="#B1D0FC"
    />
    <!-- #endregion -->

    <!-- #region dot -->
    <g class="animate-fade-in-right description">
      <circle cx="256" cy="104.875" r="4" fill="#70FFC3" />
      <circle
        class="animate-ping"
        cx="256"
        cy="105"
        r="6"
        fill="#113926"
        fill-opacity="0.8"
      />
      <circle
        class="animate-ping"
        cx="256"
        cy="105"
        r="8"
        fill="#113926"
        fill-opacity="0.6"
      />
    </g>
    <!-- #endregion -->

    <!-- #region status -->
    <path
      class="animate-fade-in-right description"
      d="M271.833 112H270.58L275.342 98.9091H276.621L281.383 112H280.13L276.026 100.462H275.937L271.833 112ZM272.734 106.982H279.229V108.056H272.734V106.982ZM289.759 102.182L286.174 112H284.959L281.373 102.182H282.607L285.522 110.498H285.611L288.526 102.182H289.759ZM294.429 112.224C293.837 112.224 293.295 112.109 292.805 111.879C292.315 111.644 291.925 111.308 291.636 110.869C291.346 110.425 291.201 109.888 291.201 109.258C291.201 108.772 291.293 108.363 291.476 108.031C291.659 107.698 291.919 107.425 292.256 107.212C292.592 106.999 292.991 106.831 293.451 106.707C293.911 106.584 294.418 106.488 294.972 106.42C295.522 106.352 295.986 106.292 296.366 106.241C296.749 106.19 297.041 106.109 297.241 105.998C297.442 105.887 297.542 105.708 297.542 105.461V105.231C297.542 104.562 297.342 104.036 296.941 103.652C296.545 103.264 295.974 103.07 295.228 103.07C294.521 103.07 293.943 103.226 293.496 103.537C293.052 103.848 292.741 104.214 292.562 104.636L291.482 104.246C291.704 103.71 292.011 103.281 292.403 102.962C292.795 102.638 293.234 102.406 293.719 102.265C294.205 102.12 294.697 102.048 295.196 102.048C295.571 102.048 295.961 102.097 296.366 102.195C296.775 102.293 297.154 102.463 297.503 102.706C297.853 102.945 298.136 103.279 298.354 103.71C298.571 104.136 298.68 104.677 298.68 105.333V112H297.542V110.447H297.472C297.335 110.737 297.133 111.018 296.864 111.29C296.596 111.563 296.259 111.787 295.854 111.962C295.449 112.136 294.974 112.224 294.429 112.224ZM294.582 111.182C295.187 111.182 295.712 111.048 296.155 110.779C296.598 110.511 296.939 110.155 297.177 109.712C297.42 109.264 297.542 108.772 297.542 108.235V106.816C297.457 106.897 297.314 106.969 297.114 107.033C296.918 107.097 296.69 107.155 296.43 107.206C296.174 107.253 295.918 107.293 295.663 107.327C295.407 107.362 295.177 107.391 294.972 107.417C294.418 107.485 293.945 107.592 293.553 107.737C293.161 107.881 292.861 108.082 292.652 108.337C292.443 108.589 292.339 108.913 292.339 109.309C292.339 109.906 292.552 110.368 292.978 110.696C293.404 111.02 293.939 111.182 294.582 111.182ZM301.719 112V102.182H302.863V112H301.719ZM302.301 100.494C302.066 100.494 301.866 100.415 301.7 100.258C301.534 100.096 301.451 99.902 301.451 99.6761C301.451 99.4503 301.534 99.2585 301.7 99.1009C301.866 98.9389 302.066 98.858 302.301 98.858C302.535 98.858 302.735 98.9389 302.902 99.1009C303.068 99.2585 303.151 99.4503 303.151 99.6761C303.151 99.902 303.068 100.096 302.902 100.258C302.735 100.415 302.535 100.494 302.301 100.494ZM307.01 98.9091V112H305.872V98.9091H307.01ZM312.763 112.224C312.171 112.224 311.629 112.109 311.139 111.879C310.649 111.644 310.259 111.308 309.97 110.869C309.68 110.425 309.535 109.888 309.535 109.258C309.535 108.772 309.627 108.363 309.81 108.031C309.993 107.698 310.253 107.425 310.59 107.212C310.926 106.999 311.325 106.831 311.785 106.707C312.245 106.584 312.752 106.488 313.306 106.42C313.856 106.352 314.32 106.292 314.7 106.241C315.083 106.19 315.375 106.109 315.575 105.998C315.776 105.887 315.876 105.708 315.876 105.461V105.231C315.876 104.562 315.676 104.036 315.275 103.652C314.879 103.264 314.308 103.07 313.562 103.07C312.854 103.07 312.277 103.226 311.83 103.537C311.386 103.848 311.075 104.214 310.896 104.636L309.816 104.246C310.038 103.71 310.345 103.281 310.737 102.962C311.129 102.638 311.568 102.406 312.053 102.265C312.539 102.12 313.031 102.048 313.53 102.048C313.905 102.048 314.295 102.097 314.7 102.195C315.109 102.293 315.488 102.463 315.837 102.706C316.187 102.945 316.47 103.279 316.688 103.71C316.905 104.136 317.014 104.677 317.014 105.333V112H315.876V110.447H315.805C315.669 110.737 315.467 111.018 315.198 111.29C314.93 111.563 314.593 111.787 314.188 111.962C313.783 112.136 313.308 112.224 312.763 112.224ZM312.916 111.182C313.521 111.182 314.046 111.048 314.489 110.779C314.932 110.511 315.273 110.155 315.511 109.712C315.754 109.264 315.876 108.772 315.876 108.235V106.816C315.791 106.897 315.648 106.969 315.448 107.033C315.252 107.097 315.024 107.155 314.764 107.206C314.508 107.253 314.252 107.293 313.997 107.327C313.741 107.362 313.511 107.391 313.306 107.417C312.752 107.485 312.279 107.592 311.887 107.737C311.495 107.881 311.195 108.082 310.986 108.337C310.777 108.589 310.673 108.913 310.673 109.309C310.673 109.906 310.886 110.368 311.312 110.696C311.738 111.02 312.273 111.182 312.916 111.182ZM320.277 112V98.9091H321.421V104.055H321.523C321.651 103.761 321.834 103.458 322.073 103.147C322.316 102.836 322.633 102.576 323.025 102.367C323.422 102.154 323.92 102.048 324.521 102.048C325.326 102.048 326.034 102.261 326.643 102.687C327.253 103.109 327.728 103.701 328.069 104.464C328.41 105.222 328.58 106.107 328.58 107.116C328.58 108.131 328.41 109.019 328.069 109.782C327.732 110.545 327.259 111.139 326.65 111.565C326.044 111.991 325.341 112.205 324.54 112.205C323.944 112.205 323.445 112.098 323.044 111.885C322.648 111.672 322.329 111.41 322.086 111.099C321.843 110.783 321.655 110.477 321.523 110.178H321.383V112H320.277ZM321.402 107.097C321.402 107.89 321.519 108.593 321.753 109.207C321.992 109.816 322.333 110.295 322.776 110.645C323.223 110.99 323.765 111.163 324.4 111.163C325.052 111.163 325.603 110.984 326.055 110.626C326.507 110.263 326.85 109.776 327.084 109.162C327.319 108.548 327.436 107.86 327.436 107.097C327.436 106.343 327.319 105.663 327.084 105.058C326.854 104.453 326.513 103.974 326.062 103.62C325.61 103.262 325.056 103.083 324.4 103.083C323.76 103.083 323.217 103.256 322.77 103.601C322.326 103.942 321.988 104.415 321.753 105.02C321.519 105.621 321.402 106.313 321.402 107.097ZM332.217 98.9091V112H331.079V98.9091H332.217ZM339.197 112.205C338.281 112.205 337.488 111.991 336.819 111.565C336.15 111.135 335.633 110.54 335.266 109.782C334.904 109.019 334.723 108.141 334.723 107.148C334.723 106.16 334.904 105.282 335.266 104.515C335.633 103.744 336.138 103.141 336.781 102.706C337.429 102.267 338.177 102.048 339.025 102.048C339.557 102.048 340.071 102.146 340.565 102.342C341.059 102.533 341.503 102.83 341.895 103.23C342.291 103.626 342.604 104.127 342.834 104.732C343.064 105.333 343.179 106.045 343.179 106.867V107.43H335.509V106.426H342.016C342.016 105.795 341.888 105.229 341.633 104.726C341.381 104.219 341.03 103.818 340.578 103.524C340.13 103.23 339.613 103.083 339.025 103.083C338.402 103.083 337.855 103.249 337.382 103.582C336.909 103.914 336.538 104.353 336.27 104.898C336.005 105.444 335.871 106.04 335.867 106.688V107.289C335.867 108.069 336.001 108.751 336.27 109.335C336.542 109.914 336.928 110.364 337.427 110.683C337.925 111.003 338.515 111.163 339.197 111.163C339.662 111.163 340.069 111.09 340.418 110.945C340.772 110.8 341.068 110.607 341.307 110.364C341.549 110.116 341.733 109.846 341.856 109.552L342.937 109.903C342.787 110.317 342.542 110.698 342.201 111.048C341.865 111.397 341.443 111.678 340.936 111.891C340.433 112.1 339.853 112.205 339.197 112.205ZM354.789 102.182V103.173H349.963V102.182H354.789ZM351.472 112V100.744C351.472 100.215 351.593 99.7699 351.836 99.4077C352.083 99.0455 352.405 98.7706 352.801 98.5831C353.197 98.3956 353.617 98.3018 354.06 98.3018C354.359 98.3018 354.606 98.3274 354.802 98.3786C355.002 98.4254 355.16 98.4723 355.275 98.5192L354.942 99.5163C354.857 99.4908 354.753 99.4609 354.629 99.4268C354.506 99.3928 354.35 99.3757 354.163 99.3757C353.668 99.3757 353.287 99.5142 353.018 99.7912C352.75 100.068 352.616 100.464 352.616 100.98L352.609 112H351.472ZM360.472 112.205C359.623 112.205 358.873 111.989 358.222 111.559C357.574 111.129 357.067 110.534 356.7 109.776C356.334 109.013 356.15 108.133 356.15 107.136C356.15 106.13 356.334 105.246 356.7 104.483C357.067 103.716 357.574 103.119 358.222 102.693C358.873 102.263 359.623 102.048 360.472 102.048C361.32 102.048 362.067 102.263 362.715 102.693C363.363 103.124 363.87 103.72 364.236 104.483C364.607 105.246 364.793 106.13 364.793 107.136C364.793 108.133 364.609 109.013 364.243 109.776C363.876 110.534 363.367 111.129 362.715 111.559C362.067 111.989 361.32 112.205 360.472 112.205ZM360.472 111.163C361.153 111.163 361.731 110.979 362.204 110.613C362.677 110.246 363.035 109.759 363.278 109.149C363.525 108.54 363.648 107.869 363.648 107.136C363.648 106.403 363.525 105.729 363.278 105.116C363.035 104.502 362.677 104.01 362.204 103.639C361.731 103.268 361.153 103.083 360.472 103.083C359.794 103.083 359.217 103.268 358.739 103.639C358.266 104.01 357.906 104.502 357.659 105.116C357.416 105.729 357.295 106.403 357.295 107.136C357.295 107.869 357.416 108.54 357.659 109.149C357.906 109.759 358.266 110.246 358.739 110.613C359.212 110.979 359.79 111.163 360.472 111.163ZM367.29 112V102.182H368.396V103.69H368.479C368.675 103.196 369.016 102.798 369.502 102.495C369.992 102.188 370.546 102.035 371.164 102.035C371.258 102.035 371.362 102.037 371.477 102.041C371.592 102.045 371.688 102.05 371.765 102.054V103.211C371.714 103.202 371.624 103.19 371.496 103.173C371.368 103.156 371.23 103.147 371.081 103.147C370.569 103.147 370.113 103.256 369.713 103.473C369.316 103.686 369.003 103.982 368.773 104.362C368.543 104.741 368.428 105.173 368.428 105.659V112H367.29ZM380.948 112L377.983 102.182H379.184L381.511 110.281H381.594L383.914 102.182H385.122L387.424 110.261H387.513L389.84 102.182H391.041L388.076 112H386.899L384.573 103.952H384.451L382.125 112H380.948ZM396.735 112.205C395.887 112.205 395.137 111.989 394.485 111.559C393.837 111.129 393.33 110.534 392.964 109.776C392.597 109.013 392.414 108.133 392.414 107.136C392.414 106.13 392.597 105.246 392.964 104.483C393.33 103.716 393.837 103.119 394.485 102.693C395.137 102.263 395.887 102.048 396.735 102.048C397.583 102.048 398.331 102.263 398.979 102.693C399.627 103.124 400.134 103.72 400.5 104.483C400.871 105.246 401.056 106.13 401.056 107.136C401.056 108.133 400.873 109.013 400.506 109.776C400.14 110.534 399.631 111.129 398.979 111.559C398.331 111.989 397.583 112.205 396.735 112.205ZM396.735 111.163C397.417 111.163 397.994 110.979 398.467 110.613C398.94 110.246 399.298 109.759 399.541 109.149C399.788 108.54 399.912 107.869 399.912 107.136C399.912 106.403 399.788 105.729 399.541 105.116C399.298 104.502 398.94 104.01 398.467 103.639C397.994 103.268 397.417 103.083 396.735 103.083C396.058 103.083 395.48 103.268 395.003 103.639C394.53 104.01 394.17 104.502 393.923 105.116C393.68 105.729 393.558 106.403 393.558 107.136C393.558 107.869 393.68 108.54 393.923 109.149C394.17 109.759 394.53 110.246 395.003 110.613C395.476 110.979 396.053 111.163 396.735 111.163ZM403.554 112V102.182H404.66V103.69H404.743C404.939 103.196 405.28 102.798 405.766 102.495C406.256 102.188 406.81 102.035 407.427 102.035C407.521 102.035 407.626 102.037 407.741 102.041C407.856 102.045 407.952 102.05 408.028 102.054V103.211C407.977 103.202 407.888 103.19 407.76 103.173C407.632 103.156 407.494 103.147 407.344 103.147C406.833 103.147 406.377 103.256 405.976 103.473C405.58 103.686 405.267 103.982 405.037 104.362C404.807 104.741 404.692 105.173 404.692 105.659V112H403.554ZM411.005 108.293L410.993 106.803H411.248L415.851 102.182H417.289L412.744 106.733L412.642 106.752L411.005 108.293ZM409.97 112V98.9091H411.108V112H409.97ZM416.087 112L412.098 106.957L412.917 106.17L417.544 112H416.087Z"
      fill="white"
    />
    <!-- #endregion -->
  </g>

  <defs>
    <filter
      id="filter0_f_1035_966"
      x="622.514"
      y="-118"
      width="524"
      height="524"
      filterUnits="userSpaceOnUse"
      color-interpolation-filters="sRGB"
    >
      <feFlood flood-opacity="0" result="BackgroundImageFix" />
      <feBlend
        mode="normal"
        in="SourceGraphic"
        in2="BackgroundImageFix"
        result="shape"
      />
      <feGaussianBlur
        stdDeviation="2"
        result="effect1_foregroundBlur_1035_966"
      />
    </filter>
    <filter
      id="filter1_f_1035_966"
      x="674.356"
      y="-73.2676"
      width="434.973"
      height="434.973"
      filterUnits="userSpaceOnUse"
      color-interpolation-filters="sRGB"
    >
      <feFlood flood-opacity="0" result="BackgroundImageFix" />
      <feBlend
        mode="normal"
        in="SourceGraphic"
        in2="BackgroundImageFix"
        result="shape"
      />
      <feGaussianBlur
        stdDeviation="2"
        result="effect1_foregroundBlur_1035_966"
      />
    </filter>
    <filter
      id="filter2_f_1035_966"
      x="723.034"
      y="-26.1797"
      width="340.36"
      height="340.36"
      filterUnits="userSpaceOnUse"
      color-interpolation-filters="sRGB"
    >
      <feFlood flood-opacity="0" result="BackgroundImageFix" />
      <feBlend
        mode="normal"
        in="SourceGraphic"
        in2="BackgroundImageFix"
        result="shape"
      />
      <feGaussianBlur
        stdDeviation="2"
        result="effect1_foregroundBlur_1035_966"
      />
    </filter>
    <filter
      id="filter3_f_1035_966"
      x="768.531"
      y="19.3179"
      width="249.364"
      height="249.364"
      filterUnits="userSpaceOnUse"
      color-interpolation-filters="sRGB"
    >
      <feFlood flood-opacity="0" result="BackgroundImageFix" />
      <feBlend
        mode="normal"
        in="SourceGraphic"
        in2="BackgroundImageFix"
        result="shape"
      />
      <feGaussianBlur
        stdDeviation="2"
        result="effect1_foregroundBlur_1035_966"
      />
    </filter>
    <filter
      id="filter4_i_1035_966"
      x="838.104"
      y="87.8979"
      width="111.62"
      height="111.62"
      filterUnits="userSpaceOnUse"
      color-interpolation-filters="sRGB"
    >
      <feFlood flood-opacity="0" result="BackgroundImageFix" />
      <feBlend
        mode="normal"
        in="SourceGraphic"
        in2="BackgroundImageFix"
        result="shape"
      />
      <feColorMatrix
        in="SourceAlpha"
        type="matrix"
        values="0 0 0 0 0 0 0 0 0 0 0 0 0 0 0 0 0 0 127 0"
        result="hardAlpha"
      />
      <feMorphology
        radius="10"
        operator="erode"
        in="SourceAlpha"
        result="effect1_innerShadow_1035_966"
      />
      <feOffset />
      <feGaussianBlur stdDeviation="12.5" />
      <feComposite in2="hardAlpha" operator="arithmetic" k2="-1" k3="1" />
      <feColorMatrix
        type="matrix"
        values="0 0 0 0 0.113725 0 0 0 0 0.145098 0 0 0 0 0.235294 0 0 0 1 0"
      />
      <feBlend
        mode="normal"
        in2="shape"
        result="effect1_innerShadow_1035_966"
      />
    </filter>
    <filter
      id="filter5_i_1035_966"
      x="694"
      y="229"
      width="52.5424"
      height="52.5425"
      filterUnits="userSpaceOnUse"
      color-interpolation-filters="sRGB"
    >
      <feFlood flood-opacity="0" result="BackgroundImageFix" />
      <feBlend
        mode="normal"
        in="SourceGraphic"
        in2="BackgroundImageFix"
        result="shape"
      />
      <feColorMatrix
        in="SourceAlpha"
        type="matrix"
        values="0 0 0 0 0 0 0 0 0 0 0 0 0 0 0 0 0 0 127 0"
        result="hardAlpha"
      />
      <feMorphology
        radius="20"
        operator="erode"
        in="SourceAlpha"
        result="effect1_innerShadow_1035_966"
      />
      <feOffset />
      <feGaussianBlur stdDeviation="5" />
      <feComposite in2="hardAlpha" operator="arithmetic" k2="-1" k3="1" />
      <feColorMatrix
        type="matrix"
        values="0 0 0 0 0.694118 0 0 0 0 0.815686 0 0 0 0 0.988235 0 0 0 0.05 0"
      />
      <feBlend
        mode="normal"
        in2="shape"
        result="effect1_innerShadow_1035_966"
      />
    </filter>
    <filter
      id="filter6_i_1035_966"
      x="723.384"
      y="163.616"
      width="33.6858"
      height="33.6858"
      filterUnits="userSpaceOnUse"
      color-interpolation-filters="sRGB"
    >
      <feFlood flood-opacity="0" result="BackgroundImageFix" />
      <feBlend
        mode="normal"
        in="SourceGraphic"
        in2="BackgroundImageFix"
        result="shape"
      />
      <feColorMatrix
        in="SourceAlpha"
        type="matrix"
        values="0 0 0 0 0 0 0 0 0 0 0 0 0 0 0 0 0 0 127 0"
        result="hardAlpha"
      />
      <feMorphology
        radius="20"
        operator="erode"
        in="SourceAlpha"
        result="effect1_innerShadow_1035_966"
      />
      <feOffset />
      <feGaussianBlur stdDeviation="5" />
      <feComposite in2="hardAlpha" operator="arithmetic" k2="-1" k3="1" />
      <feColorMatrix
        type="matrix"
        values="0 0 0 0 0.694118 0 0 0 0 0.815686 0 0 0 0 0.988235 0 0 0 0.05 0"
      />
      <feBlend
        mode="normal"
        in2="shape"
        result="effect1_innerShadow_1035_966"
      />
    </filter>
    <filter
      id="filter7_i_1035_966"
      x="735.202"
      y="26.2129"
      width="54"
      height="54"
      filterUnits="userSpaceOnUse"
      color-interpolation-filters="sRGB"
    >
      <feFlood flood-opacity="0" result="BackgroundImageFix" />
      <feBlend
        mode="normal"
        in="SourceGraphic"
        in2="BackgroundImageFix"
        result="shape"
      />
      <feColorMatrix
        in="SourceAlpha"
        type="matrix"
        values="0 0 0 0 0 0 0 0 0 0 0 0 0 0 0 0 0 0 127 0"
        result="hardAlpha"
      />
      <feMorphology
        radius="20"
        operator="erode"
        in="SourceAlpha"
        result="effect1_innerShadow_1035_966"
      />
      <feOffset />
      <feGaussianBlur stdDeviation="5" />
      <feComposite in2="hardAlpha" operator="arithmetic" k2="-1" k3="1" />
      <feColorMatrix
        type="matrix"
        values="0 0 0 0 0.694118 0 0 0 0 0.815686 0 0 0 0 0.988235 0 0 0 0.05 0"
      />
      <feBlend
        mode="normal"
        in2="shape"
        result="effect1_innerShadow_1035_966"
      />
    </filter>
    <filter
      id="filter8_i_1035_966"
      x="587.436"
      y="-1.7561"
      width="120"
      height="120"
      filterUnits="userSpaceOnUse"
      color-interpolation-filters="sRGB"
    >
      <feFlood flood-opacity="0" result="BackgroundImageFix" />
      <feBlend
        mode="normal"
        in="SourceGraphic"
        in2="BackgroundImageFix"
        result="shape"
      />
      <feColorMatrix
        in="SourceAlpha"
        type="matrix"
        values="0 0 0 0 0 0 0 0 0 0 0 0 0 0 0 0 0 0 127 0"
        result="hardAlpha"
      />
      <feMorphology
        radius="20"
        operator="erode"
        in="SourceAlpha"
        result="effect1_innerShadow_1035_966"
      />
      <feOffset />
      <feGaussianBlur stdDeviation="5" />
      <feComposite in2="hardAlpha" operator="arithmetic" k2="-1" k3="1" />
      <feColorMatrix
        type="matrix"
        values="0 0 0 0 0.694118 0 0 0 0 0.815686 0 0 0 0 0.988235 0 0 0 0.05 0"
      />
      <feBlend
        mode="normal"
        in2="shape"
        result="effect1_innerShadow_1035_966"
      />
    </filter>
    <filter
      id="filter9_i_1035_966"
      x="653.416"
      y="111.162"
      width="61"
      height="61"
      filterUnits="userSpaceOnUse"
      color-interpolation-filters="sRGB"
    >
      <feFlood flood-opacity="0" result="BackgroundImageFix" />
      <feBlend
        mode="normal"
        in="SourceGraphic"
        in2="BackgroundImageFix"
        result="shape"
      />
      <feColorMatrix
        in="SourceAlpha"
        type="matrix"
        values="0 0 0 0 0 0 0 0 0 0 0 0 0 0 0 0 0 0 127 0"
        result="hardAlpha"
      />
      <feMorphology
        radius="20"
        operator="erode"
        in="SourceAlpha"
        result="effect1_innerShadow_1035_966"
      />
      <feOffset />
      <feGaussianBlur stdDeviation="5" />
      <feComposite in2="hardAlpha" operator="arithmetic" k2="-1" k3="1" />
      <feColorMatrix
        type="matrix"
        values="0 0 0 0 0.694118 0 0 0 0 0.815686 0 0 0 0 0.988235 0 0 0 0.05 0"
      />
      <feBlend
        mode="normal"
        in2="shape"
        result="effect1_innerShadow_1035_966"
      />
    </filter>
    <filter
      id="filter10_i_1035_966"
      x="881.634"
      y="223.085"
      width="63"
      height="63"
      filterUnits="userSpaceOnUse"
      color-interpolation-filters="sRGB"
    >
      <feFlood flood-opacity="0" result="BackgroundImageFix" />
      <feBlend
        mode="normal"
        in="SourceGraphic"
        in2="BackgroundImageFix"
        result="shape"
      />
      <feColorMatrix
        in="SourceAlpha"
        type="matrix"
        values="0 0 0 0 0 0 0 0 0 0 0 0 0 0 0 0 0 0 127 0"
        result="hardAlpha"
      />
      <feMorphology
        radius="20"
        operator="erode"
        in="SourceAlpha"
        result="effect1_innerShadow_1035_966"
      />
      <feOffset />
      <feGaussianBlur stdDeviation="5" />
      <feComposite in2="hardAlpha" operator="arithmetic" k2="-1" k3="1" />
      <feColorMatrix
        type="matrix"
        values="0 0 0 0 0.694118 0 0 0 0 0.815686 0 0 0 0 0.988235 0 0 0 0.05 0"
      />
      <feBlend
        mode="normal"
        in2="shape"
        result="effect1_innerShadow_1035_966"
      />
    </filter>
    <filter
      id="filter11_d_1035_966"
      x="40.0767"
      y="109.552"
      width="565.001"
      height="102.528"
      filterUnits="userSpaceOnUse"
      color-interpolation-filters="sRGB"
    >
      <feFlood flood-opacity="0" result="BackgroundImageFix" />
      <feColorMatrix
        in="SourceAlpha"
        type="matrix"
        values="0 0 0 0 0 0 0 0 0 0 0 0 0 0 0 0 0 0 127 0"
        result="hardAlpha"
      />
      <feOffset />
      <feGaussianBlur stdDeviation="10" />
      <feComposite in2="hardAlpha" operator="out" />
      <feColorMatrix
        type="matrix"
        values="0 0 0 0 0.694118 0 0 0 0 0.815686 0 0 0 0 0.988235 0 0 0 0.4 0"
      />
      <feBlend
        mode="normal"
        in2="BackgroundImageFix"
        result="effect1_dropShadow_1035_966"
      />
      <feBlend
        mode="normal"
        in="SourceGraphic"
        in2="effect1_dropShadow_1035_966"
        result="shape"
      />
    </filter>
    <radialGradient
      id="paint0_radial_1035_966"
      cx="0"
      cy="0"
      r="1"
      gradientUnits="userSpaceOnUse"
      gradientTransform="translate(893.914 143.708) rotate(90) scale(53.8099)"
    >
      <stop offset="1" stop-color="#B1D0FC" />
    </radialGradient>
    <radialGradient
      id="paint1_radial_1035_966"
      cx="0"
      cy="0"
      r="1"
      gradientUnits="userSpaceOnUse"
      gradientTransform="translate(891.18 143.161) rotate(132.691) scale(57.5848 51.8246)"
    >
      <stop stop-color="#7488A5" />
      <stop offset="1" stop-color="#05060F" />
    </radialGradient>
    <radialGradient
      id="paint2_radial_1035_966"
      cx="0"
      cy="0"
      r="1"
      gradientUnits="userSpaceOnUse"
      gradientTransform="translate(891.18 143.161) rotate(132.691) scale(57.5848 51.8246)"
    >
      <stop stop-color="#7488A5" />
      <stop offset="1" stop-color="#05060F" />
    </radialGradient>
    <radialGradient
      id="paint3_radial_1035_966"
      cx="0"
      cy="0"
      r="1"
      gradientUnits="userSpaceOnUse"
      gradientTransform="translate(891.18 143.161) rotate(132.691) scale(57.5848 51.8246)"
    >
      <stop stop-color="#7488A5" />
      <stop offset="1" stop-color="#05060F" />
    </radialGradient>
    <radialGradient
      id="paint4_radial_1035_966"
      cx="0"
      cy="0"
      r="1"
      gradientUnits="userSpaceOnUse"
      gradientTransform="translate(891.18 143.161) rotate(132.691) scale(57.5848 51.8246)"
    >
      <stop stop-color="#7488A5" />
      <stop offset="1" stop-color="#05060F" />
    </radialGradient>
    <linearGradient
      id="paint5_linear_1035_966"
      x1="812.22"
      y1="182.972"
      x2="728.174"
      y2="267.018"
      gradientUnits="userSpaceOnUse"
    >
      <stop stop-color="#B1D0FC" />
      <stop offset="1" stop-color="#1D253C" />
    </linearGradient>
    <linearGradient
      id="paint6_linear_1035_966"
      x1="733.781"
      y1="241.121"
      x2="708.179"
      y2="271.96"
      gradientUnits="userSpaceOnUse"
    >
      <stop stop-color="#B1D0FC" />
      <stop offset="1" stop-color="#697C96" />
    </linearGradient>
    <linearGradient
      id="paint7_linear_1035_966"
      x1="816.568"
      y1="112.128"
      x2="745.294"
      y2="187.99"
      gradientUnits="userSpaceOnUse"
    >
      <stop stop-color="#B1D0FC" />
      <stop offset="1" stop-color="#1D253C" />
    </linearGradient>
    <linearGradient
      id="paint8_linear_1035_966"
      x1="746.425"
      y1="171.025"
      x2="729.496"
      y2="185.419"
      gradientUnits="userSpaceOnUse"
    >
      <stop stop-color="#B1D0FC" />
      <stop offset="1" stop-color="#697C96" />
    </linearGradient>
    <linearGradient
      id="paint9_linear_1035_966"
      x1="868.286"
      y1="-41.7394"
      x2="769.242"
      y2="63.6787"
      gradientUnits="userSpaceOnUse"
    >
      <stop stop-color="#B1D0FC" />
      <stop offset="1" stop-color="#1D253C" />
    </linearGradient>
    <linearGradient
      id="paint10_linear_1035_966"
      x1="777.851"
      y1="43.2423"
      x2="763.473"
      y2="71.8855"
      gradientUnits="userSpaceOnUse"
    >
      <stop stop-color="#B1D0FC" />
      <stop offset="1" stop-color="#697C96" />
    </linearGradient>
    <linearGradient
      id="paint11_linear_1035_966"
      x1="776.323"
      y1="-57.1188"
      x2="655.99"
      y2="70.9593"
      gradientUnits="userSpaceOnUse"
    >
      <stop stop-color="#B1D0FC" />
      <stop offset="1" stop-color="#1D253C" />
    </linearGradient>
    <linearGradient
      id="paint12_linear_1035_966"
      x1="664.543"
      y1="39.1324"
      x2="630.654"
      y2="78.7512"
      gradientUnits="userSpaceOnUse"
    >
      <stop stop-color="#B1D0FC" />
      <stop offset="1" stop-color="#697C96" />
    </linearGradient>
    <linearGradient
      id="paint13_linear_1035_966"
      x1="778.103"
      y1="57.358"
      x2="690.167"
      y2="150.954"
      gradientUnits="userSpaceOnUse"
    >
      <stop stop-color="#B1D0FC" />
      <stop offset="1" stop-color="#1D253C" />
    </linearGradient>
    <linearGradient
      id="paint14_linear_1035_966"
      x1="694.329"
      y1="128.682"
      x2="670.115"
      y2="152.987"
      gradientUnits="userSpaceOnUse"
    >
      <stop stop-color="#B1D0FC" />
      <stop offset="1" stop-color="#697C96" />
    </linearGradient>
    <linearGradient
      id="paint15_linear_1035_966"
      x1="998.397"
      y1="178.269"
      x2="918.792"
      y2="262.997"
      gradientUnits="userSpaceOnUse"
    >
      <stop stop-color="#B1D0FC" />
      <stop offset="1" stop-color="#1D253C" />
    </linearGradient>
    <linearGradient
      id="paint16_linear_1035_966"
      x1="925.378"
      y1="242.737"
      x2="902.569"
      y2="270.21"
      gradientUnits="userSpaceOnUse"
    >
      <stop stop-color="#B1D0FC" />
      <stop offset="1" stop-color="#697C96" />
    </linearGradient>
    <linearGradient
      id="paint17_linear_1035_966"
      x1="321.5"
      y1="111"
      x2="321.5"
      y2="212"
      gradientUnits="userSpaceOnUse"
    >
      <stop stop-color="#05060F" />
      <stop offset="0.505" stop-color="#B1D0FC" />
      <stop offset="1" stop-color="#05060F" />
    </linearGradient>
    <clipPath id="clip0_1035_966">
      <rect width="986" height="288" fill="white" />
    </clipPath>
    <clipPath id="clip1_1035_966">
      <rect
        width="29"
        height="29"
        fill="white"
        transform="translate(705.771 240.771)"
      />
    </clipPath>
    <clipPath id="clip2_1035_966">
      <rect
        width="18"
        height="17"
        fill="white"
        transform="translate(731.227 171.959)"
      />
    </clipPath>
  </defs>
</svg>
