<svg
  width="986"
  height="288"
  viewBox="0 0 986 288"
  fill="none"
  xmlns="http://www.w3.org/2000/svg"
>
  <g clip-path="url(#clip0_1035_966)">
    <rect width="986" height="288" fill="#030308" />
    <g opacity="0.2" filter="url(#filter0_f_1035_966)">
      <circle cx="884.514" cy="144" r="248" fill="#05060F" />
      <circle
        cx="884.514"
        cy="144"
        r="248"
        stroke="#B1D0FC"
        stroke-width="20"
      />
    </g>
    <circle cx="884.514" cy="144" r="248" fill="#05060F" stroke="#B1D0FC" />
    <g opacity="0.2" filter="url(#filter1_f_1035_966)">
      <circle cx="891.842" cy="144.219" r="203.486" fill="#05060F" />
      <circle
        cx="891.842"
        cy="144.219"
        r="203.486"
        stroke="#B1D0FC"
        stroke-width="20"
      />
    </g>
    <circle
      cx="891.842"
      cy="144.219"
      r="203.486"
      fill="#05060F"
      stroke="#B1D0FC"
    />
    <g opacity="0.2" filter="url(#filter2_f_1035_966)">
      <circle cx="893.213" cy="144" r="156.18" fill="#05060F" />
      <circle
        cx="893.213"
        cy="144"
        r="156.18"
        stroke="#B1D0FC"
        stroke-width="20"
      />
    </g>
    <circle cx="893.213" cy="144" r="156.18" fill="#05060F" stroke="#B1D0FC" />
    <g opacity="0.2" filter="url(#filter3_f_1035_966)">
      <circle cx="893.213" cy="144" r="110.682" fill="#05060F" />
      <circle
        cx="893.213"
        cy="144"
        r="110.682"
        stroke="#B1D0FC"
        stroke-width="20"
      />
    </g>
    <circle cx="893.213" cy="144" r="110.682" fill="#05060F" stroke="#B1D0FC" />
    <g filter="url(#filter4_i_1035_966)">
      <circle cx="893.914" cy="143.708" r="53.8099" fill="#B1D0FC" />
    </g>
    <circle
      cx="893.914"
      cy="143.708"
      r="54.8099"
      stroke="#B1D0FC"
      stroke-opacity="0.2"
      stroke-width="2"
    />
    <path
      d="M878.602 143.926C878.602 122.483 885.552 105.1 894.133 105.1C902.713 105.1 909.663 122.483 909.663 143.926C909.663 165.37 902.713 182.753 894.133 182.753C885.552 182.753 878.602 165.37 878.602 143.926Z"
      stroke="url(#paint0_radial_1035_966)"
      stroke-width="3"
      stroke-linecap="round"
      stroke-linejoin="round"
    />
    <path
      d="M886.27 130.803C905.07 120.079 923.831 117.408 928.172 124.835C932.512 132.263 920.795 146.978 901.995 157.698C883.195 168.418 864.434 171.093 860.094 163.662C855.753 156.234 867.471 141.527 886.27 130.803Z"
      stroke="url(#paint1_radial_1035_966)"
      stroke-width="3"
      stroke-linecap="round"
      stroke-linejoin="round"
    />
    <path
      d="M901.995 130.803C920.795 141.519 932.512 156.234 928.172 163.662C923.831 171.093 905.07 168.422 886.27 157.698C867.471 146.974 855.753 132.267 860.094 124.835C864.431 117.408 883.195 120.079 901.995 130.803Z"
      stroke="url(#paint2_radial_1035_966)"
      stroke-width="3"
      stroke-linecap="round"
      stroke-linejoin="round"
    />
    <path
      d="M899.957 143.926C899.957 145.471 899.343 146.952 898.251 148.044C897.159 149.137 895.677 149.75 894.133 149.75C892.588 149.75 891.107 149.137 890.015 148.044C888.922 146.952 888.309 145.471 888.309 143.926C888.309 142.382 888.922 140.9 890.015 139.808C891.107 138.716 892.588 138.102 894.133 138.102C895.677 138.102 897.159 138.716 898.251 139.808C899.343 140.9 899.957 142.382 899.957 143.926Z"
      stroke="url(#paint3_radial_1035_966)"
      stroke-width="3"
      stroke-linecap="round"
      stroke-linejoin="round"
    />
    <g filter="url(#filter5_i_1035_966)">
      <rect
        x="694"
        y="229"
        width="52.5424"
        height="52.5424"
        rx="26.2712"
        fill="url(#paint4_linear_1035_966)"
      />
      <rect
        x="695"
        y="230"
        width="50.5424"
        height="50.5424"
        rx="25.2712"
        stroke="#B1D0FC"
        stroke-opacity="0.2"
        stroke-width="2"
      />
      <g clip-path="url(#clip1_1035_966)">
        <mask
          id="mask0_1035_966"
          style="mask-type: luminance"
          maskUnits="userSpaceOnUse"
          x="705"
          y="240"
          width="30"
          height="30"
        >
          <path
            d="M705.771 240.771H734.771V269.771H705.771V240.771Z"
            fill="white"
          />
        </mask>
        <g mask="url(#mask0_1035_966)">
          <path
            d="M732.741 242.54H708.153C708.072 242.54 707.992 242.555 707.918 242.586C707.843 242.617 707.776 242.662 707.719 242.72C707.662 242.777 707.617 242.844 707.586 242.919C707.555 242.993 707.539 243.073 707.54 243.154V267.742C707.539 267.823 707.555 267.903 707.586 267.978C707.617 268.052 707.662 268.12 707.719 268.177C707.776 268.234 707.844 268.279 707.919 268.31C707.993 268.341 708.073 268.357 708.154 268.357H732.742C732.823 268.357 732.903 268.341 732.978 268.31C733.052 268.279 733.12 268.234 733.177 268.177C733.234 268.12 733.279 268.052 733.31 267.978C733.341 267.903 733.357 267.823 733.357 267.742V243.153C733.357 243.072 733.341 242.992 733.31 242.918C733.279 242.843 733.233 242.775 733.176 242.718C733.119 242.661 733.051 242.616 732.977 242.586C732.902 242.555 732.822 242.539 732.741 242.54ZM722.907 256.336H719.833V265.897H717.374V256.336H714.301V254.218H722.907V256.336ZM723.595 265.35V262.795C723.595 262.795 724.991 263.847 726.666 263.847C728.341 263.847 728.276 262.752 728.276 262.602C728.276 261.013 723.53 261.013 723.53 257.491C723.53 252.702 730.446 254.592 730.446 254.592L730.36 256.869C730.36 256.869 729.2 256.095 727.89 256.095C726.58 256.095 726.108 256.719 726.108 257.384C726.108 259.102 730.897 258.931 730.897 262.388C730.897 267.712 723.595 265.351 723.595 265.351"
            fill="url(#paint5_linear_1035_966)"
          />
        </g>
      </g>
    </g>
    <g filter="url(#filter6_i_1035_966)">
      <rect
        x="723.384"
        y="163.616"
        width="33.6858"
        height="33.6858"
        rx="16.8429"
        fill="url(#paint6_linear_1035_966)"
      />
      <rect
        x="724.384"
        y="164.616"
        width="31.6858"
        height="31.6858"
        rx="15.8429"
        stroke="#B1D0FC"
        stroke-opacity="0.2"
        stroke-width="2"
      />
      <g clip-path="url(#clip2_1035_966)">
        <path
          d="M734.227 171.959H746.227V177.626H740.226L734.227 171.959ZM734.227 177.626H740.227L746.227 183.292H734.227L734.227 177.626ZM734.227 183.292H740.227V188.959L734.227 183.292Z"
          fill="url(#paint7_linear_1035_966)"
        />
      </g>
    </g>
    <g filter="url(#filter7_i_1035_966)">
      <rect
        x="738.797"
        y="29.8079"
        width="46.8102"
        height="46.8102"
        rx="23.4051"
        fill="url(#paint8_linear_1035_966)"
      />
      <rect
        x="739.797"
        y="30.8079"
        width="44.8102"
        height="44.8102"
        rx="22.4051"
        stroke="#B1D0FC"
        stroke-opacity="0.2"
        stroke-width="2"
      />
      <path
        d="M762.672 44.2185C758.748 44.2185 756.308 46.1883 755.323 50.1426C756.793 48.1728 758.513 47.4323 760.467 47.921C761.584 48.2024 762.392 49.017 763.274 49.9204C764.714 51.4014 766.346 53.1046 770.02 53.1046C773.944 53.1046 776.383 51.1348 777.368 47.1805C775.898 49.1503 774.179 49.8908 772.224 49.4021C771.107 49.1207 770.314 48.3061 769.417 47.4027C767.977 45.9217 766.346 44.2185 762.672 44.2185ZM755.323 53.1046C751.4 53.1046 748.96 55.0743 747.975 59.0286C749.445 57.0589 751.164 56.3184 753.119 56.8071C754.236 57.0885 755.03 57.9031 755.926 58.8065C757.366 60.2875 758.997 61.9907 762.672 61.9907C766.595 61.9907 769.035 60.0209 770.02 56.0666C768.55 58.0364 766.831 58.7769 764.876 58.2881C763.759 58.0067 762.965 57.1922 762.069 56.2888C760.629 54.8077 758.997 53.1046 755.323 53.1046Z"
        fill="url(#paint9_linear_1035_966)"
      />
    </g>
    <g filter="url(#filter8_i_1035_966)">
      <rect
        x="619"
        y="29.8079"
        width="56.8722"
        height="56.8722"
        rx="28.4361"
        fill="url(#paint10_linear_1035_966)"
      />
      <rect
        x="620"
        y="30.8079"
        width="54.8722"
        height="54.8722"
        rx="27.4361"
        stroke="#B1D0FC"
        stroke-opacity="0.2"
        stroke-width="2"
      />
      <path
        d="M655.49 72.8771C655.368 72.944 655.378 72.9653 655.496 72.9036C655.532 72.8886 655.565 72.8666 655.594 72.8388C655.594 72.8165 655.594 72.8165 655.49 72.8771ZM655.738 72.739C655.679 72.7889 655.679 72.7889 655.749 72.756C655.775 72.7427 655.798 72.7259 655.819 72.706C655.819 72.6773 655.803 72.6837 655.738 72.739ZM655.899 72.6391C655.84 72.689 655.84 72.689 655.91 72.6561C655.936 72.6425 655.959 72.6254 655.98 72.6051C655.98 72.5785 655.964 72.5838 655.899 72.6391ZM656.062 72.5403C656.003 72.5902 656.003 72.5902 656.071 72.5562C656.109 72.535 656.141 72.5126 656.141 72.5063C656.141 72.4797 656.125 72.485 656.062 72.5403ZM656.281 72.3905C656.169 72.468 656.13 72.518 656.233 72.4627C656.302 72.4191 656.42 72.3235 656.399 72.3235C656.355 72.3405 656.318 72.3692 656.281 72.3905ZM646.42 41.0078C646.345 41.0131 646.119 41.0344 645.921 41.0514C641.231 41.4891 636.843 44.0902 634.062 48.097C632.524 50.2939 631.525 52.8418 631.15 55.5229C631.016 56.4579 631 56.7342 631 58.0018C631 59.2683 631.016 59.5403 631.15 60.4753C632.048 66.8621 636.457 72.2236 642.434 74.2105C643.51 74.5644 644.637 74.8087 645.921 74.9586C646.42 75.0138 648.578 75.0138 649.077 74.9586C651.296 74.7036 653.17 74.1394 655.024 73.165C655.309 73.0163 655.363 72.977 655.324 72.944C654.42 71.7121 653.523 70.4742 652.634 69.2305L649.997 65.5616L646.694 60.52C645.595 58.8319 644.485 57.1516 643.364 55.4794C643.353 55.4794 643.339 57.7202 643.332 60.453C643.321 65.2397 643.321 65.4341 643.262 65.5446C643.206 65.6782 643.105 65.7865 642.978 65.8496C642.876 65.8995 642.784 65.9101 642.296 65.9101H641.738L641.593 65.8166C641.502 65.7562 641.428 65.6723 641.378 65.5733L641.308 65.4235L641.313 58.7604L641.325 52.0973L641.427 51.9645C641.493 51.8838 641.573 51.8164 641.663 51.7658C641.798 51.6989 641.852 51.6883 642.409 51.6883C643.064 51.6883 643.172 51.7148 643.345 51.9093C644.683 53.9598 646.009 56.0183 647.324 58.0847C649.468 61.4337 652.395 66.0036 653.833 68.2456L656.449 72.3246L656.578 72.2364C657.835 71.3749 658.975 70.344 659.966 69.171C662.044 66.7197 663.393 63.7033 663.85 60.4828C663.984 59.5477 664 59.2704 664 58.0039C664 56.7374 663.984 56.4654 663.85 55.5304C662.952 49.1435 658.543 43.7821 652.566 41.7941C651.449 41.4297 650.299 41.1816 649.134 41.0535C648.822 41.0206 646.689 40.9812 646.421 41.0099L646.42 41.0078ZM653.171 51.2898C653.248 51.3285 653.317 51.3827 653.373 51.4491C653.429 51.5155 653.471 51.5929 653.498 51.6766C653.526 51.7658 653.531 53.6136 653.526 57.7755L653.515 63.7511L652.495 62.1361L651.469 60.52V56.1817C651.469 53.3692 651.48 51.7924 651.494 51.7148C651.545 51.537 651.661 51.3864 651.817 51.2951C651.945 51.2282 651.995 51.2229 652.505 51.2229C652.982 51.2229 653.064 51.2282 653.171 51.2898Z"
        fill="url(#paint11_linear_1035_966)"
      />
    </g>
    <g filter="url(#filter9_i_1035_966)">
      <rect
        x="663.136"
        y="120.881"
        width="41.5605"
        height="41.5605"
        rx="20.7802"
        fill="url(#paint12_linear_1035_966)"
      />
      <rect
        x="664.136"
        y="121.881"
        width="39.5605"
        height="39.5605"
        rx="19.7802"
        stroke="#B1D0FC"
        stroke-opacity="0.2"
        stroke-width="2"
      />
      <path
        d="M674.189 146.473C674.067 146.284 674.002 146.065 674 145.842C673.998 145.618 674.06 145.399 674.179 145.208L683.355 130.57C683.471 130.385 683.636 130.235 683.832 130.135C684.028 130.035 684.248 129.989 684.469 130.002C684.69 130.015 684.903 130.086 685.085 130.208C685.268 130.33 685.413 130.498 685.506 130.694L693.888 148.478C693.961 148.633 693.999 148.802 694 148.973C694.001 149.144 693.964 149.313 693.892 149.469C693.82 149.624 693.715 149.763 693.583 149.876C693.452 149.989 693.297 150.072 693.13 150.122L680.091 153.95C679.835 154.024 679.562 154.016 679.313 153.925C679.063 153.834 678.851 153.666 678.708 153.446L674.189 146.473ZM684.414 134.85L681.187 150.567C681.172 150.643 681.177 150.721 681.201 150.794C681.226 150.868 681.269 150.934 681.327 150.986C681.386 151.038 681.457 151.074 681.534 151.091C681.611 151.109 681.691 151.106 681.766 151.084L690.776 148.454C690.838 148.436 690.895 148.405 690.944 148.364C690.993 148.322 691.033 148.271 691.06 148.214C691.087 148.157 691.102 148.094 691.103 148.031C691.104 147.967 691.091 147.905 691.065 147.847L685.284 134.761C685.246 134.673 685.18 134.598 685.095 134.549C685.011 134.501 684.912 134.48 684.815 134.49C684.717 134.499 684.625 134.54 684.553 134.605C684.481 134.67 684.433 134.756 684.414 134.85Z"
        fill="url(#paint13_linear_1035_966)"
      />
    </g>
    <g filter="url(#filter10_i_1035_966)">
      <rect
        x="894.322"
        y="235.774"
        width="37.6232"
        height="37.6232"
        rx="18.8116"
        fill="url(#paint14_linear_1035_966)"
      />
      <rect
        x="895.322"
        y="236.774"
        width="35.6232"
        height="35.6232"
        rx="17.8116"
        stroke="#B1D0FC"
        stroke-opacity="0.2"
        stroke-width="2"
      />
      <path
        d="M902.682 253.877L909.334 247.214L911.279 249.17C911.003 250.148 911.451 251.219 912.349 251.737V258.112C911.659 258.504 911.198 259.252 911.198 260.103C911.198 260.714 911.441 261.299 911.872 261.731C912.304 262.163 912.89 262.405 913.5 262.405C914.11 262.405 914.696 262.163 915.128 261.731C915.559 261.299 915.802 260.714 915.802 260.103C915.802 259.252 915.341 258.504 914.651 258.112V252.519L917.033 254.925C916.953 255.097 916.953 255.293 916.953 255.5C916.953 256.11 917.195 256.696 917.627 257.128C918.058 257.559 918.644 257.802 919.254 257.802C919.865 257.802 920.45 257.559 920.882 257.128C921.314 256.696 921.556 256.11 921.556 255.5C921.556 254.89 921.314 254.304 920.882 253.872C920.45 253.441 919.865 253.198 919.254 253.198C919.047 253.198 918.852 253.198 918.679 253.279L915.721 250.321C915.864 249.788 915.809 249.221 915.565 248.726C915.322 248.231 914.907 247.841 914.398 247.628C913.903 247.444 913.385 247.398 912.925 247.525L910.968 245.58L911.877 244.682C912.775 243.773 914.225 243.773 915.123 244.682L924.318 253.877C925.227 254.775 925.227 256.225 924.318 257.123L915.123 266.318C914.225 267.227 912.775 267.227 911.877 266.318L902.682 257.123C901.773 256.225 901.773 254.775 902.682 253.877Z"
        fill="url(#paint15_linear_1035_966)"
      />
    </g>
    <g filter="url(#filter11_bd_1035_966)">
      <path
        d="M60.0768 178V130.32H68.7808V170.32H89.1968V178H60.0768ZM106.539 178.768C103.851 178.768 101.504 178.171 99.4988 176.976C97.5361 175.781 96.0214 174.117 94.9548 171.984C93.9308 169.851 93.4188 167.355 93.4188 164.496V143.184H101.803V163.792C101.803 165.243 102.08 166.523 102.635 167.632C103.232 168.699 104.064 169.552 105.131 170.192C106.24 170.789 107.477 171.088 108.843 171.088C110.208 171.088 111.424 170.789 112.491 170.192C113.557 169.552 114.389 168.677 114.987 167.568C115.584 166.459 115.883 165.136 115.883 163.6V143.184H124.267V178H116.331V171.152L117.035 172.368C116.224 174.501 114.88 176.101 113.003 177.168C111.168 178.235 109.013 178.768 106.539 178.768ZM132.06 178V143.184H140.444V178H132.06ZM132.06 139.28V130.32H140.444V139.28H132.06ZM161.433 178.768C157.721 178.768 154.479 177.893 151.705 176.144C148.975 174.352 147.097 171.941 146.073 168.912L152.345 165.904C153.241 167.867 154.479 169.403 156.057 170.512C157.679 171.621 159.471 172.176 161.433 172.176C162.969 172.176 164.185 171.835 165.081 171.152C165.977 170.469 166.425 169.573 166.425 168.464C166.425 167.781 166.233 167.227 165.849 166.8C165.508 166.331 165.017 165.947 164.377 165.648C163.78 165.307 163.119 165.029 162.393 164.816L156.697 163.216C153.753 162.363 151.513 161.061 149.977 159.312C148.484 157.563 147.737 155.493 147.737 153.104C147.737 150.971 148.271 149.115 149.337 147.536C150.447 145.915 151.961 144.656 153.881 143.76C155.844 142.864 158.084 142.416 160.601 142.416C163.887 142.416 166.788 143.205 169.305 144.784C171.823 146.363 173.615 148.581 174.681 151.44L168.281 154.448C167.684 152.869 166.681 151.611 165.273 150.672C163.865 149.733 162.287 149.264 160.537 149.264C159.129 149.264 158.02 149.584 157.209 150.224C156.399 150.864 155.993 151.696 155.993 152.72C155.993 153.36 156.164 153.915 156.505 154.384C156.847 154.853 157.316 155.237 157.913 155.536C158.553 155.835 159.279 156.112 160.089 156.368L165.657 158.032C168.516 158.885 170.713 160.165 172.249 161.872C173.828 163.579 174.617 165.669 174.617 168.144C174.617 170.235 174.063 172.091 172.953 173.712C171.844 175.291 170.308 176.528 168.345 177.424C166.383 178.32 164.079 178.768 161.433 178.768ZM189.235 178L205.683 130.32H216.947L233.395 178H223.923L220.531 167.76H202.099L198.643 178H189.235ZM204.595 160.08H218.035L210.099 136.336H212.531L204.595 160.08ZM237.998 178V143.184H245.87V150.032L245.23 148.816C246.04 146.725 247.363 145.147 249.198 144.08C251.075 142.971 253.251 142.416 255.726 142.416C258.286 142.416 260.547 142.971 262.51 144.08C264.515 145.189 266.072 146.747 267.182 148.752C268.291 150.715 268.846 152.997 268.846 155.6V178H260.462V157.584C260.462 156.048 260.163 154.725 259.566 153.616C258.968 152.507 258.136 151.653 257.07 151.056C256.046 150.416 254.83 150.096 253.422 150.096C252.056 150.096 250.84 150.416 249.774 151.056C248.707 151.653 247.875 152.507 247.278 153.616C246.68 154.725 246.382 156.048 246.382 157.584V178H237.998ZM292.831 192.08C290.229 192.08 287.818 191.653 285.599 190.8C283.381 189.947 281.461 188.752 279.839 187.216C278.261 185.723 277.109 183.952 276.383 181.904L284.191 178.96C284.703 180.581 285.706 181.883 287.199 182.864C288.735 183.888 290.613 184.4 292.831 184.4C294.538 184.4 296.031 184.08 297.311 183.44C298.634 182.8 299.658 181.861 300.383 180.624C301.109 179.429 301.471 177.979 301.471 176.272V168.336L303.071 170.256C301.877 172.347 300.277 173.925 298.271 174.992C296.266 176.059 293.983 176.592 291.423 176.592C288.181 176.592 285.279 175.845 282.719 174.352C280.159 172.859 278.154 170.811 276.703 168.208C275.253 165.605 274.527 162.683 274.527 159.44C274.527 156.155 275.253 153.232 276.703 150.672C278.154 148.112 280.138 146.107 282.655 144.656C285.173 143.163 288.031 142.416 291.231 142.416C293.834 142.416 296.117 142.971 298.079 144.08C300.085 145.147 301.749 146.704 303.071 148.752L301.919 150.864V143.184H309.855V176.272C309.855 179.301 309.109 182.011 307.615 184.4C306.165 186.789 304.159 188.667 301.599 190.032C299.082 191.397 296.159 192.08 292.831 192.08ZM292.447 168.848C294.239 168.848 295.797 168.464 297.119 167.696C298.485 166.885 299.551 165.776 300.319 164.368C301.087 162.96 301.471 161.339 301.471 159.504C301.471 157.712 301.066 156.112 300.255 154.704C299.487 153.253 298.421 152.123 297.055 151.312C295.733 150.501 294.197 150.096 292.447 150.096C290.698 150.096 289.119 150.501 287.711 151.312C286.303 152.123 285.194 153.253 284.383 154.704C283.615 156.112 283.231 157.712 283.231 159.504C283.231 161.296 283.615 162.896 284.383 164.304C285.194 165.712 286.282 166.821 287.647 167.632C289.055 168.443 290.655 168.848 292.447 168.848ZM334.197 178.768C330.613 178.768 327.477 177.957 324.789 176.336C322.101 174.715 320.011 172.517 318.517 169.744C317.024 166.971 316.277 163.899 316.277 160.528C316.277 157.029 317.024 153.936 318.517 151.248C320.053 148.517 322.123 146.363 324.725 144.784C327.371 143.205 330.315 142.416 333.557 142.416C336.288 142.416 338.677 142.864 340.725 143.76C342.816 144.656 344.587 145.893 346.037 147.472C347.488 149.051 348.597 150.864 349.365 152.912C350.133 154.917 350.517 157.093 350.517 159.44C350.517 160.037 350.475 160.656 350.389 161.296C350.347 161.936 350.24 162.491 350.069 162.96H323.189V156.56H345.333L341.365 159.568C341.749 157.605 341.643 155.856 341.045 154.32C340.491 152.784 339.552 151.568 338.229 150.672C336.949 149.776 335.392 149.328 333.557 149.328C331.808 149.328 330.251 149.776 328.885 150.672C327.52 151.525 326.475 152.805 325.749 154.512C325.067 156.176 324.811 158.203 324.981 160.592C324.811 162.725 325.088 164.624 325.813 166.288C326.581 167.909 327.691 169.168 329.141 170.064C330.635 170.96 332.341 171.408 334.261 171.408C336.181 171.408 337.803 171.003 339.125 170.192C340.491 169.381 341.557 168.293 342.325 166.928L349.109 170.256C348.427 171.92 347.36 173.392 345.909 174.672C344.459 175.952 342.731 176.955 340.725 177.68C338.763 178.405 336.587 178.768 334.197 178.768ZM356.873 178V129.552H365.257V178H356.873ZM390.022 178.768C386.608 178.768 383.494 177.979 380.678 176.4C377.904 174.821 375.686 172.667 374.022 169.936C372.4 167.205 371.59 164.091 371.59 160.592C371.59 157.093 372.4 153.979 374.022 151.248C375.686 148.517 377.904 146.363 380.678 144.784C383.451 143.205 386.566 142.416 390.022 142.416C393.435 142.416 396.528 143.205 399.302 144.784C402.075 146.363 404.272 148.517 405.894 151.248C407.558 153.936 408.39 157.051 408.39 160.592C408.39 164.091 407.558 167.205 405.894 169.936C404.23 172.667 402.011 174.821 399.238 176.4C396.464 177.979 393.392 178.768 390.022 178.768ZM390.022 171.088C391.899 171.088 393.542 170.64 394.95 169.744C396.4 168.848 397.531 167.611 398.342 166.032C399.195 164.411 399.622 162.597 399.622 160.592C399.622 158.544 399.195 156.752 398.342 155.216C397.531 153.637 396.4 152.4 394.95 151.504C393.542 150.565 391.899 150.096 390.022 150.096C388.102 150.096 386.416 150.565 384.966 151.504C383.515 152.4 382.363 153.637 381.51 155.216C380.699 156.752 380.294 158.544 380.294 160.592C380.294 162.597 380.699 164.411 381.51 166.032C382.363 167.611 383.515 168.848 384.966 169.744C386.416 170.64 388.102 171.088 390.022 171.088ZM426.827 178V130.32H458.635V138H435.531V151.184H455.755V158.864H435.531V178H426.827ZM461.685 178V143.184H469.557V150.928L468.917 149.776C469.728 147.173 470.987 145.36 472.693 144.336C474.443 143.312 476.533 142.8 478.965 142.8H481.013V150.224H478.005C475.616 150.224 473.696 150.971 472.245 152.464C470.795 153.915 470.069 155.963 470.069 158.608V178H461.685ZM498.039 178.768C495.351 178.768 493.004 178.171 490.999 176.976C489.036 175.781 487.521 174.117 486.455 171.984C485.431 169.851 484.919 167.355 484.919 164.496V143.184H493.303V163.792C493.303 165.243 493.58 166.523 494.135 167.632C494.732 168.699 495.564 169.552 496.631 170.192C497.74 170.789 498.977 171.088 500.343 171.088C501.708 171.088 502.924 170.789 503.991 170.192C505.057 169.552 505.889 168.677 506.487 167.568C507.084 166.459 507.383 165.136 507.383 163.6V143.184H515.767V178H507.831V171.152L508.535 172.368C507.724 174.501 506.38 176.101 504.503 177.168C502.668 178.235 500.513 178.768 498.039 178.768ZM539.432 178.384C535.507 178.384 532.456 177.317 530.28 175.184C528.147 173.008 527.08 169.957 527.08 166.032V150.672H521.064V143.184H521.704C523.411 143.184 524.734 142.736 525.672 141.84C526.611 140.944 527.08 139.643 527.08 137.936V135.248H535.464V143.184H543.464V150.672H535.464V165.584C535.464 166.736 535.656 167.717 536.04 168.528C536.467 169.339 537.107 169.957 537.96 170.384C538.856 170.811 539.987 171.024 541.352 171.024C541.651 171.024 541.992 171.003 542.376 170.96C542.803 170.917 543.208 170.875 543.592 170.832V178C542.995 178.085 542.312 178.171 541.544 178.256C540.776 178.341 540.072 178.384 539.432 178.384ZM566.709 178.768C563.296 178.768 560.181 177.979 557.365 176.4C554.592 174.821 552.373 172.667 550.709 169.936C549.088 167.205 548.277 164.091 548.277 160.592C548.277 157.093 549.088 153.979 550.709 151.248C552.373 148.517 554.592 146.363 557.365 144.784C560.139 143.205 563.253 142.416 566.709 142.416C570.123 142.416 573.216 143.205 575.989 144.784C578.763 146.363 580.96 148.517 582.581 151.248C584.245 153.936 585.077 157.051 585.077 160.592C585.077 164.091 584.245 167.205 582.581 169.936C580.917 172.667 578.699 174.821 575.925 176.4C573.152 177.979 570.08 178.768 566.709 178.768ZM566.709 171.088C568.587 171.088 570.229 170.64 571.637 169.744C573.088 168.848 574.219 167.611 575.029 166.032C575.883 164.411 576.309 162.597 576.309 160.592C576.309 158.544 575.883 156.752 575.029 155.216C574.219 153.637 573.088 152.4 571.637 151.504C570.229 150.565 568.587 150.096 566.709 150.096C564.789 150.096 563.104 150.565 561.653 151.504C560.203 152.4 559.051 153.637 558.197 155.216C557.387 156.752 556.981 158.544 556.981 160.592C556.981 162.597 557.387 164.411 558.197 166.032C559.051 167.611 560.203 168.848 561.653 169.744C563.104 170.64 564.789 171.088 566.709 171.088Z"
        fill="url(#paint16_linear_1035_966)"
      />
    </g>
    <path
      d="M59.6491 108V97.8182H65.5405V98.6534H60.5788V102.487H65.0781V103.322H60.5788V108H59.6491ZM72.0421 105.082V100.364H72.927V108H72.0421V106.732H71.9725C71.7935 107.123 71.5101 107.45 71.1223 107.712C70.7346 107.97 70.2606 108.099 69.7005 108.099C69.2132 108.099 68.7807 107.993 68.4029 107.781C68.025 107.566 67.7284 107.251 67.513 106.837C67.2975 106.422 67.1898 105.914 67.1898 105.31V100.364H68.0748V105.256C68.0748 105.852 68.2504 106.333 68.6017 106.697C68.9531 107.059 69.4038 107.239 69.954 107.239C70.2987 107.239 70.6301 107.156 70.9483 106.991C71.2665 106.825 71.5284 106.583 71.7338 106.265C71.9393 105.943 72.0421 105.549 72.0421 105.082ZM76.1548 97.8182V108H75.2699V97.8182H76.1548ZM79.3814 97.8182V108H78.4964V97.8182H79.3814ZM85.8445 103.217V104.053H81.6087V103.217H85.8445ZM93.1974 102.039L92.3871 102.268C92.3075 102.039 92.1948 101.832 92.049 101.646C91.9032 101.461 91.7126 101.313 91.4773 101.204C91.2453 101.094 90.9569 101.04 90.6122 101.04C90.0952 101.04 89.6709 101.162 89.3395 101.408C89.008 101.653 88.8423 101.969 88.8423 102.357C88.8423 102.685 88.955 102.952 89.1804 103.158C89.4091 103.36 89.7604 103.521 90.2344 103.64L91.3878 103.923C92.0275 104.079 92.5064 104.326 92.8246 104.664C93.1461 105.002 93.3068 105.426 93.3068 105.937C93.3068 106.368 93.1875 106.75 92.9489 107.085C92.7102 107.42 92.3771 107.683 91.9496 107.876C91.5253 108.065 91.0331 108.159 90.473 108.159C89.7273 108.159 89.1125 107.992 88.6286 107.657C88.1446 107.319 87.8348 106.832 87.6989 106.195L88.549 105.987C88.6584 106.441 88.8722 106.784 89.1903 107.016C89.5118 107.248 89.9344 107.364 90.4581 107.364C91.0447 107.364 91.5137 107.233 91.8651 106.971C92.2164 106.706 92.392 106.374 92.392 105.977C92.392 105.668 92.2893 105.41 92.0838 105.201C91.8783 104.989 91.5668 104.833 91.1491 104.734L89.9013 104.435C89.2384 104.276 88.7479 104.024 88.4297 103.68C88.1115 103.335 87.9524 102.907 87.9524 102.397C87.9524 101.976 88.0668 101.607 88.2955 101.288C88.5241 100.967 88.839 100.715 89.2401 100.533C89.6411 100.35 90.0985 100.259 90.6122 100.259C91.3116 100.259 91.87 100.418 92.2876 100.737C92.7086 101.051 93.0118 101.486 93.1974 102.039ZM98.2523 100.364V101.134H94.6081V100.364H98.2523ZM95.7466 98.5341H96.6365V106.006C96.6365 106.325 96.6912 106.575 96.8006 106.757C96.91 106.936 97.0525 107.064 97.2282 107.14C97.4038 107.213 97.5911 107.249 97.79 107.249C97.906 107.249 98.0054 107.243 98.0882 107.229C98.1711 107.213 98.244 107.196 98.307 107.18L98.4959 107.98C98.4097 108.013 98.3037 108.043 98.1777 108.07C98.0518 108.099 97.896 108.114 97.7104 108.114C97.3856 108.114 97.0724 108.043 96.7708 107.901C96.4725 107.758 96.2272 107.546 96.035 107.264C95.8427 106.982 95.7466 106.633 95.7466 106.215V98.5341ZM102.395 108.174C101.934 108.174 101.513 108.085 101.132 107.906C100.751 107.723 100.448 107.461 100.222 107.12C99.9969 106.775 99.8842 106.358 99.8842 105.867C99.8842 105.489 99.9555 105.171 100.098 104.913C100.241 104.654 100.443 104.442 100.705 104.276C100.966 104.111 101.276 103.98 101.634 103.884C101.992 103.787 102.387 103.713 102.817 103.66C103.245 103.607 103.606 103.56 103.901 103.521C104.2 103.481 104.427 103.418 104.582 103.332C104.738 103.246 104.816 103.106 104.816 102.914V102.735C104.816 102.215 104.66 101.805 104.349 101.507C104.04 101.205 103.596 101.055 103.016 101.055C102.466 101.055 102.017 101.176 101.669 101.418C101.324 101.66 101.082 101.945 100.943 102.273L100.103 101.969C100.275 101.552 100.514 101.219 100.819 100.97C101.124 100.718 101.465 100.538 101.843 100.428C102.221 100.316 102.604 100.259 102.991 100.259C103.283 100.259 103.586 100.297 103.901 100.374C104.219 100.45 104.514 100.582 104.786 100.771C105.058 100.957 105.278 101.217 105.447 101.552C105.616 101.883 105.701 102.304 105.701 102.815V108H104.816V106.792H104.761C104.655 107.017 104.498 107.236 104.289 107.448C104.08 107.66 103.818 107.834 103.504 107.97C103.189 108.106 102.819 108.174 102.395 108.174ZM102.514 107.364C102.985 107.364 103.393 107.259 103.737 107.05C104.082 106.842 104.347 106.565 104.533 106.22C104.722 105.872 104.816 105.489 104.816 105.072V103.968C104.75 104.031 104.639 104.087 104.483 104.137C104.33 104.187 104.153 104.232 103.951 104.271C103.752 104.308 103.553 104.339 103.354 104.366C103.156 104.392 102.977 104.415 102.817 104.435C102.387 104.488 102.019 104.571 101.714 104.684C101.409 104.797 101.175 104.952 101.013 105.151C100.85 105.347 100.769 105.599 100.769 105.907C100.769 106.371 100.935 106.731 101.266 106.986C101.598 107.238 102.014 107.364 102.514 107.364ZM111.038 108.159C110.355 108.159 109.76 107.988 109.253 107.647C108.749 107.306 108.358 106.838 108.08 106.245C107.801 105.652 107.662 104.976 107.662 104.217C107.662 103.451 107.803 102.77 108.085 102.173C108.37 101.577 108.764 101.109 109.268 100.771C109.772 100.43 110.357 100.259 111.023 100.259C111.533 100.259 111.996 100.359 112.41 100.558C112.824 100.753 113.166 101.03 113.434 101.388C113.706 101.742 113.877 102.157 113.946 102.631H113.051C112.959 102.2 112.735 101.832 112.38 101.527C112.029 101.219 111.582 101.065 111.038 101.065C110.551 101.065 110.12 101.197 109.745 101.462C109.371 101.724 109.078 102.09 108.865 102.561C108.657 103.028 108.552 103.57 108.552 104.187C108.552 104.807 108.655 105.355 108.86 105.832C109.066 106.306 109.354 106.678 109.725 106.946C110.1 107.214 110.538 107.349 111.038 107.349C111.376 107.349 111.684 107.286 111.963 107.16C112.244 107.031 112.48 106.848 112.669 106.613C112.861 106.378 112.99 106.098 113.056 105.773H113.951C113.885 106.233 113.721 106.644 113.459 107.006C113.201 107.364 112.864 107.645 112.45 107.851C112.039 108.056 111.568 108.159 111.038 108.159ZM116.653 105.116L116.643 103.958H116.842L120.422 100.364H121.54L118.006 103.903L117.926 103.918L116.653 105.116ZM115.848 108V97.8182H116.733V108H115.848ZM120.606 108L117.504 104.077L118.14 103.466L121.739 108H120.606ZM130.308 108H127.325V97.8182H130.487C131.458 97.8182 132.288 98.0204 132.978 98.4247C133.67 98.8291 134.201 99.4091 134.569 100.165C134.936 100.92 135.12 101.827 135.12 102.884C135.12 103.951 134.931 104.868 134.554 105.634C134.179 106.396 133.632 106.981 132.913 107.388C132.197 107.796 131.329 108 130.308 108ZM128.255 107.165H130.253C131.128 107.165 131.861 106.992 132.451 106.648C133.041 106.303 133.483 105.811 133.778 105.171C134.073 104.531 134.221 103.769 134.221 102.884C134.217 102.006 134.071 101.25 133.783 100.617C133.498 99.9841 133.074 99.4986 132.51 99.1605C131.95 98.8224 131.257 98.6534 130.432 98.6534H128.255V107.165ZM140.277 108.159C139.565 108.159 138.948 107.993 138.428 107.662C137.907 107.327 137.505 106.865 137.22 106.275C136.938 105.682 136.797 104.999 136.797 104.227C136.797 103.458 136.938 102.775 137.22 102.178C137.505 101.578 137.897 101.109 138.398 100.771C138.902 100.43 139.483 100.259 140.143 100.259C140.557 100.259 140.957 100.335 141.341 100.488C141.726 100.637 142.07 100.867 142.375 101.179C142.683 101.487 142.927 101.877 143.106 102.347C143.285 102.815 143.374 103.368 143.374 104.008V104.445H137.409V103.665H142.47C142.47 103.174 142.37 102.733 142.171 102.342C141.976 101.948 141.702 101.636 141.351 101.408C141.003 101.179 140.6 101.065 140.143 101.065C139.659 101.065 139.233 101.194 138.865 101.452C138.497 101.711 138.209 102.052 138 102.477C137.795 102.901 137.69 103.365 137.687 103.869V104.336C137.687 104.942 137.791 105.473 138 105.927C138.212 106.378 138.512 106.727 138.9 106.976C139.288 107.224 139.747 107.349 140.277 107.349C140.638 107.349 140.955 107.292 141.227 107.18C141.502 107.067 141.732 106.916 141.918 106.727C142.107 106.535 142.249 106.325 142.345 106.096L143.186 106.369C143.07 106.691 142.879 106.987 142.614 107.259C142.352 107.531 142.024 107.75 141.629 107.915C141.238 108.078 140.788 108.159 140.277 108.159ZM151.003 100.364L148.214 108H147.27L144.481 100.364H145.44L147.707 106.832H147.777L150.044 100.364H151.003ZM155.549 108.159C154.836 108.159 154.22 107.993 153.699 107.662C153.179 107.327 152.776 106.865 152.491 106.275C152.209 105.682 152.069 104.999 152.069 104.227C152.069 103.458 152.209 102.775 152.491 102.178C152.776 101.578 153.169 101.109 153.669 100.771C154.173 100.43 154.755 100.259 155.414 100.259C155.829 100.259 156.228 100.335 156.613 100.488C156.997 100.637 157.342 100.867 157.647 101.179C157.955 101.487 158.199 101.877 158.377 102.347C158.556 102.815 158.646 103.368 158.646 104.008V104.445H152.68V103.665H157.741C157.741 103.174 157.642 102.733 157.443 102.342C157.247 101.948 156.974 101.636 156.623 101.408C156.275 101.179 155.872 101.065 155.414 101.065C154.931 101.065 154.505 101.194 154.137 101.452C153.769 101.711 153.48 102.052 153.272 102.477C153.066 102.901 152.962 103.365 152.958 103.869V104.336C152.958 104.942 153.063 105.473 153.272 105.927C153.484 106.378 153.784 106.727 154.172 106.976C154.559 107.224 155.018 107.349 155.549 107.349C155.91 107.349 156.226 107.292 156.498 107.18C156.773 107.067 157.004 106.916 157.189 106.727C157.378 106.535 157.521 106.325 157.617 106.096L158.457 106.369C158.341 106.691 158.15 106.987 157.885 107.259C157.623 107.531 157.295 107.75 156.901 107.915C156.51 108.078 156.059 108.159 155.549 108.159ZM161.481 97.8182V108H160.596V97.8182H161.481ZM166.791 108.159C166.131 108.159 165.548 107.992 165.041 107.657C164.537 107.322 164.142 106.86 163.857 106.27C163.572 105.677 163.43 104.992 163.43 104.217C163.43 103.434 163.572 102.747 163.857 102.153C164.142 101.557 164.537 101.093 165.041 100.761C165.548 100.427 166.131 100.259 166.791 100.259C167.45 100.259 168.032 100.427 168.536 100.761C169.039 101.096 169.434 101.56 169.719 102.153C170.007 102.747 170.151 103.434 170.151 104.217C170.151 104.992 170.009 105.677 169.724 106.27C169.439 106.86 169.043 107.322 168.536 107.657C168.032 107.992 167.45 108.159 166.791 108.159ZM166.791 107.349C167.321 107.349 167.77 107.206 168.138 106.921C168.506 106.636 168.784 106.257 168.973 105.783C169.165 105.309 169.262 104.787 169.262 104.217C169.262 103.647 169.165 103.123 168.973 102.646C168.784 102.168 168.506 101.786 168.138 101.497C167.77 101.209 167.321 101.065 166.791 101.065C166.264 101.065 165.815 101.209 165.443 101.497C165.075 101.786 164.795 102.168 164.603 102.646C164.414 103.123 164.32 103.647 164.32 104.217C164.32 104.787 164.414 105.309 164.603 105.783C164.795 106.257 165.075 106.636 165.443 106.921C165.811 107.206 166.26 107.349 166.791 107.349ZM172.094 110.864V100.364H172.954V101.82H173.059C173.165 101.592 173.31 101.358 173.496 101.119C173.682 100.877 173.927 100.674 174.232 100.508C174.54 100.342 174.928 100.259 175.395 100.259C176.025 100.259 176.575 100.425 177.046 100.756C177.52 101.085 177.888 101.545 178.15 102.138C178.415 102.728 178.547 103.416 178.547 104.202C178.547 104.991 178.415 105.682 178.15 106.275C177.888 106.868 177.52 107.33 177.046 107.662C176.575 107.993 176.028 108.159 175.405 108.159C174.944 108.159 174.558 108.076 174.247 107.911C173.939 107.745 173.688 107.541 173.496 107.299C173.307 107.054 173.161 106.815 173.059 106.583H172.979V110.864H172.094ZM172.969 104.187C172.969 104.803 173.06 105.35 173.243 105.827C173.428 106.301 173.693 106.674 174.038 106.946C174.386 107.214 174.807 107.349 175.301 107.349C175.808 107.349 176.235 107.21 176.583 106.931C176.935 106.649 177.202 106.27 177.384 105.793C177.569 105.315 177.662 104.78 177.662 104.187C177.662 103.6 177.571 103.071 177.389 102.601C177.21 102.13 176.945 101.757 176.593 101.482C176.242 101.204 175.811 101.065 175.301 101.065C174.804 101.065 174.381 101.199 174.033 101.467C173.685 101.732 173.42 102.1 173.238 102.571C173.059 103.038 172.969 103.577 172.969 104.187ZM183.576 108.159C182.863 108.159 182.247 107.993 181.727 107.662C181.206 107.327 180.804 106.865 180.518 106.275C180.237 105.682 180.096 104.999 180.096 104.227C180.096 103.458 180.237 102.775 180.518 102.178C180.804 101.578 181.196 101.109 181.697 100.771C182.201 100.43 182.782 100.259 183.442 100.259C183.856 100.259 184.255 100.335 184.64 100.488C185.024 100.637 185.369 100.867 185.674 101.179C185.982 101.487 186.226 101.877 186.405 102.347C186.584 102.815 186.673 103.368 186.673 104.008V104.445H180.707V103.665H185.768C185.768 103.174 185.669 102.733 185.47 102.342C185.275 101.948 185.001 101.636 184.65 101.408C184.302 101.179 183.899 101.065 183.442 101.065C182.958 101.065 182.532 101.194 182.164 101.452C181.796 101.711 181.508 102.052 181.299 102.477C181.094 102.901 180.989 103.365 180.986 103.869V104.336C180.986 104.942 181.09 105.473 181.299 105.927C181.511 106.378 181.811 106.727 182.199 106.976C182.587 107.224 183.046 107.349 183.576 107.349C183.937 107.349 184.254 107.292 184.526 107.18C184.801 107.067 185.031 106.916 185.217 106.727C185.406 106.535 185.548 106.325 185.644 106.096L186.484 106.369C186.368 106.691 186.178 106.987 185.913 107.259C185.651 107.531 185.323 107.75 184.928 107.915C184.537 108.078 184.086 108.159 183.576 108.159ZM188.623 108V100.364H189.483V101.537H189.548C189.701 101.152 189.966 100.843 190.344 100.607C190.725 100.369 191.156 100.249 191.636 100.249C191.709 100.249 191.79 100.251 191.88 100.254C191.969 100.258 192.044 100.261 192.104 100.264V101.164C192.064 101.157 191.994 101.147 191.895 101.134C191.795 101.121 191.688 101.114 191.572 101.114C191.174 101.114 190.819 101.199 190.508 101.368C190.199 101.534 189.956 101.764 189.777 102.059C189.598 102.354 189.508 102.69 189.508 103.068V108H188.623ZM198.928 94.5369V111.281H198.158V94.5369H198.928Z"
      fill="#B1D0FC"
    />
    <circle cx="212" cy="102.5" r="5" fill="#113926" fill-opacity="0.6" />
    <circle cx="212" cy="102.5" r="4" fill="#113926" fill-opacity="0.8" />
    <circle cx="212" cy="102.5" r="3" fill="#70FFC3" />
    <path
      d="M224.37 108H223.396L227.1 97.8182H228.094L231.798 108H230.823L227.631 99.0263H227.562L224.37 108ZM225.071 104.097H230.122V104.933H225.071V104.097ZM238.313 100.364L235.524 108H234.579L231.79 100.364H232.75L235.017 106.832H235.086L237.353 100.364H238.313ZM241.945 108.174C241.484 108.174 241.063 108.085 240.682 107.906C240.301 107.723 239.997 107.461 239.772 107.12C239.547 106.775 239.434 106.358 239.434 105.867C239.434 105.489 239.505 105.171 239.648 104.913C239.79 104.654 239.993 104.442 240.254 104.276C240.516 104.111 240.826 103.98 241.184 103.884C241.542 103.787 241.936 103.713 242.367 103.66C242.795 103.607 243.156 103.56 243.451 103.521C243.749 103.481 243.976 103.418 244.132 103.332C244.288 103.246 244.366 103.106 244.366 102.914V102.735C244.366 102.215 244.21 101.805 243.899 101.507C243.59 101.205 243.146 101.055 242.566 101.055C242.016 101.055 241.567 101.176 241.219 101.418C240.874 101.66 240.632 101.945 240.493 102.273L239.653 101.969C239.825 101.552 240.064 101.219 240.369 100.97C240.674 100.718 241.015 100.538 241.393 100.428C241.771 100.316 242.153 100.259 242.541 100.259C242.833 100.259 243.136 100.297 243.451 100.374C243.769 100.45 244.064 100.582 244.336 100.771C244.608 100.957 244.828 101.217 244.997 101.552C245.166 101.883 245.251 102.304 245.251 102.815V108H244.366V106.792H244.311C244.205 107.017 244.048 107.236 243.839 107.448C243.63 107.66 243.368 107.834 243.053 107.97C242.738 108.106 242.369 108.174 241.945 108.174ZM242.064 107.364C242.535 107.364 242.942 107.259 243.287 107.05C243.632 106.842 243.897 106.565 244.082 106.22C244.271 105.872 244.366 105.489 244.366 105.072V103.968C244.3 104.031 244.189 104.087 244.033 104.137C243.88 104.187 243.703 104.232 243.501 104.271C243.302 104.308 243.103 104.339 242.904 104.366C242.705 104.392 242.526 104.415 242.367 104.435C241.936 104.488 241.569 104.571 241.264 104.684C240.959 104.797 240.725 104.952 240.563 105.151C240.4 105.347 240.319 105.599 240.319 105.907C240.319 106.371 240.485 106.731 240.816 106.986C241.148 107.238 241.564 107.364 242.064 107.364ZM247.615 108V100.364H248.505V108H247.615ZM248.067 99.0511C247.885 99.0511 247.729 98.9898 247.6 98.8672C247.471 98.7412 247.406 98.5904 247.406 98.4148C247.406 98.2391 247.471 98.09 247.6 97.9673C247.729 97.8414 247.885 97.7784 248.067 97.7784C248.249 97.7784 248.405 97.8414 248.535 97.9673C248.664 98.09 248.728 98.2391 248.728 98.4148C248.728 98.5904 248.664 98.7412 248.535 98.8672C248.405 98.9898 248.249 99.0511 248.067 99.0511ZM251.73 97.8182V108H250.845V97.8182H251.73ZM256.204 108.174C255.744 108.174 255.323 108.085 254.942 107.906C254.561 107.723 254.257 107.461 254.032 107.12C253.806 106.775 253.694 106.358 253.694 105.867C253.694 105.489 253.765 105.171 253.908 104.913C254.05 104.654 254.252 104.442 254.514 104.276C254.776 104.111 255.086 103.98 255.444 103.884C255.802 103.787 256.196 103.713 256.627 103.66C257.055 103.607 257.416 103.56 257.711 103.521C258.009 103.481 258.236 103.418 258.392 103.332C258.548 103.246 258.626 103.106 258.626 102.914V102.735C258.626 102.215 258.47 101.805 258.158 101.507C257.85 101.205 257.406 101.055 256.826 101.055C256.276 101.055 255.827 101.176 255.479 101.418C255.134 101.66 254.892 101.945 254.753 102.273L253.913 101.969C254.085 101.552 254.324 101.219 254.628 100.97C254.933 100.718 255.275 100.538 255.653 100.428C256.03 100.316 256.413 100.259 256.801 100.259C257.093 100.259 257.396 100.297 257.711 100.374C258.029 100.45 258.324 100.582 258.596 100.771C258.868 100.957 259.088 101.217 259.257 101.552C259.426 101.883 259.511 102.304 259.511 102.815V108H258.626V106.792H258.571C258.465 107.017 258.307 107.236 258.099 107.448C257.89 107.66 257.628 107.834 257.313 107.97C256.998 108.106 256.629 108.174 256.204 108.174ZM256.324 107.364C256.794 107.364 257.202 107.259 257.547 107.05C257.891 106.842 258.157 106.565 258.342 106.22C258.531 105.872 258.626 105.489 258.626 105.072V103.968C258.559 104.031 258.448 104.087 258.293 104.137C258.14 104.187 257.963 104.232 257.761 104.271C257.562 104.308 257.363 104.339 257.164 104.366C256.965 104.392 256.786 104.415 256.627 104.435C256.196 104.488 255.828 104.571 255.523 104.684C255.218 104.797 254.985 104.952 254.822 105.151C254.66 105.347 254.579 105.599 254.579 105.907C254.579 106.371 254.744 106.731 255.076 106.986C255.407 107.238 255.823 107.364 256.324 107.364ZM262.049 108V97.8182H262.938V101.82H263.018C263.117 101.592 263.26 101.356 263.446 101.114C263.634 100.872 263.881 100.67 264.186 100.508C264.495 100.342 264.882 100.259 265.35 100.259C265.976 100.259 266.526 100.425 267 100.756C267.474 101.085 267.844 101.545 268.109 102.138C268.374 102.728 268.507 103.416 268.507 104.202C268.507 104.991 268.374 105.682 268.109 106.275C267.847 106.868 267.479 107.33 267.005 107.662C266.535 107.993 265.988 108.159 265.365 108.159C264.901 108.159 264.513 108.076 264.201 107.911C263.893 107.745 263.644 107.541 263.456 107.299C263.267 107.054 263.121 106.815 263.018 106.583H262.909V108H262.049ZM262.924 104.187C262.924 104.803 263.015 105.35 263.197 105.827C263.383 106.301 263.648 106.674 263.992 106.946C264.34 107.214 264.761 107.349 265.255 107.349C265.762 107.349 266.192 107.21 266.543 106.931C266.894 106.649 267.161 106.27 267.343 105.793C267.526 105.315 267.617 104.78 267.617 104.187C267.617 103.6 267.526 103.071 267.343 102.601C267.164 102.13 266.899 101.757 266.548 101.482C266.197 101.204 265.766 101.065 265.255 101.065C264.758 101.065 264.335 101.199 263.987 101.467C263.643 101.732 263.379 102.1 263.197 102.571C263.015 103.038 262.924 103.577 262.924 104.187ZM271.335 97.8182V108H270.451V97.8182H271.335ZM276.764 108.159C276.052 108.159 275.435 107.993 274.915 107.662C274.395 107.327 273.992 106.865 273.707 106.275C273.425 105.682 273.284 104.999 273.284 104.227C273.284 103.458 273.425 102.775 273.707 102.178C273.992 101.578 274.385 101.109 274.885 100.771C275.389 100.43 275.971 100.259 276.63 100.259C277.045 100.259 277.444 100.335 277.828 100.488C278.213 100.637 278.558 100.867 278.862 101.179C279.171 101.487 279.414 101.877 279.593 102.347C279.772 102.815 279.862 103.368 279.862 104.008V104.445H273.896V103.665H278.957C278.957 103.174 278.858 102.733 278.659 102.342C278.463 101.948 278.19 101.636 277.838 101.408C277.49 101.179 277.088 101.065 276.63 101.065C276.146 101.065 275.72 101.194 275.353 101.452C274.985 101.711 274.696 102.052 274.487 102.477C274.282 102.901 274.178 103.365 274.174 103.869V104.336C274.174 104.942 274.279 105.473 274.487 105.927C274.7 106.378 275 106.727 275.387 106.976C275.775 107.224 276.234 107.349 276.764 107.349C277.126 107.349 277.442 107.292 277.714 107.18C277.989 107.067 278.219 106.916 278.405 106.727C278.594 106.535 278.737 106.325 278.833 106.096L279.673 106.369C279.557 106.691 279.366 106.987 279.101 107.259C278.839 107.531 278.511 107.75 278.117 107.915C277.726 108.078 277.275 108.159 276.764 108.159ZM288.891 100.364V101.134H285.138V100.364H288.891ZM286.311 108V99.245C286.311 98.834 286.406 98.4877 286.595 98.206C286.787 97.9242 287.037 97.7105 287.345 97.5646C287.653 97.4188 287.98 97.3459 288.325 97.3459C288.557 97.3459 288.749 97.3658 288.901 97.4055C289.057 97.442 289.18 97.4785 289.269 97.5149L289.011 98.2905C288.944 98.2706 288.863 98.2474 288.767 98.2209C288.671 98.1944 288.55 98.1811 288.404 98.1811C288.02 98.1811 287.723 98.2888 287.514 98.5043C287.305 98.7197 287.201 99.0279 287.201 99.429L287.196 108H286.311ZM293.311 108.159C292.652 108.159 292.068 107.992 291.561 107.657C291.057 107.322 290.663 106.86 290.378 106.27C290.093 105.677 289.95 104.992 289.95 104.217C289.95 103.434 290.093 102.747 290.378 102.153C290.663 101.557 291.057 101.093 291.561 100.761C292.068 100.427 292.652 100.259 293.311 100.259C293.971 100.259 294.552 100.427 295.056 100.761C295.56 101.096 295.954 101.56 296.239 102.153C296.528 102.747 296.672 103.434 296.672 104.217C296.672 104.992 296.529 105.677 296.244 106.27C295.959 106.86 295.563 107.322 295.056 107.657C294.552 107.992 293.971 108.159 293.311 108.159ZM293.311 107.349C293.841 107.349 294.291 107.206 294.658 106.921C295.026 106.636 295.305 106.257 295.494 105.783C295.686 105.309 295.782 104.787 295.782 104.217C295.782 103.647 295.686 103.123 295.494 102.646C295.305 102.168 295.026 101.786 294.658 101.497C294.291 101.209 293.841 101.065 293.311 101.065C292.784 101.065 292.335 101.209 291.964 101.497C291.596 101.786 291.316 102.168 291.124 102.646C290.935 103.123 290.84 103.647 290.84 104.217C290.84 104.787 290.935 105.309 291.124 105.783C291.316 106.257 291.596 106.636 291.964 106.921C292.332 107.206 292.781 107.349 293.311 107.349ZM298.615 108V100.364H299.475V101.537H299.539C299.692 101.152 299.957 100.843 300.335 100.607C300.716 100.369 301.147 100.249 301.627 100.249C301.7 100.249 301.782 100.251 301.871 100.254C301.96 100.258 302.035 100.261 302.095 100.264V101.164C302.055 101.157 301.985 101.147 301.886 101.134C301.786 101.121 301.679 101.114 301.563 101.114C301.165 101.114 300.81 101.199 300.499 101.368C300.191 101.534 299.947 101.764 299.768 102.059C299.589 102.354 299.5 102.69 299.5 103.068V108H298.615ZM309.238 108L306.931 100.364H307.866L309.675 106.663H309.74L311.544 100.364H312.484L314.274 106.648H314.343L316.153 100.364H317.088L314.781 108H313.866L312.057 101.741H311.962L310.152 108H309.238ZM321.516 108.159C320.857 108.159 320.273 107.992 319.766 107.657C319.262 107.322 318.868 106.86 318.583 106.27C318.298 105.677 318.155 104.992 318.155 104.217C318.155 103.434 318.298 102.747 318.583 102.153C318.868 101.557 319.262 101.093 319.766 100.761C320.273 100.427 320.857 100.259 321.516 100.259C322.176 100.259 322.757 100.427 323.261 100.761C323.765 101.096 324.159 101.56 324.445 102.153C324.733 102.747 324.877 103.434 324.877 104.217C324.877 104.992 324.735 105.677 324.449 106.27C324.164 106.86 323.768 107.322 323.261 107.657C322.757 107.992 322.176 108.159 321.516 108.159ZM321.516 107.349C322.047 107.349 322.496 107.206 322.864 106.921C323.231 106.636 323.51 106.257 323.699 105.783C323.891 105.309 323.987 104.787 323.987 104.217C323.987 103.647 323.891 103.123 323.699 102.646C323.51 102.168 323.231 101.786 322.864 101.497C322.496 101.209 322.047 101.065 321.516 101.065C320.989 101.065 320.54 101.209 320.169 101.497C319.801 101.786 319.521 102.168 319.329 102.646C319.14 103.123 319.045 103.647 319.045 104.217C319.045 104.787 319.14 105.309 319.329 105.783C319.521 106.257 319.801 106.636 320.169 106.921C320.537 107.206 320.986 107.349 321.516 107.349ZM326.82 108V100.364H327.68V101.537H327.744C327.897 101.152 328.162 100.843 328.54 100.607C328.921 100.369 329.352 100.249 329.832 100.249C329.905 100.249 329.987 100.251 330.076 100.254C330.166 100.258 330.24 100.261 330.3 100.264V101.164C330.26 101.157 330.19 101.147 330.091 101.134C329.992 101.121 329.884 101.114 329.768 101.114C329.37 101.114 329.015 101.199 328.704 101.368C328.396 101.534 328.152 101.764 327.973 102.059C327.794 102.354 327.705 102.69 327.705 103.068V108H326.82ZM332.615 105.116L332.605 103.958H332.804L336.384 100.364H337.502L333.968 103.903L333.888 103.918L332.615 105.116ZM331.81 108V97.8182H332.695V108H331.81ZM336.568 108L333.465 104.077L334.102 103.466L337.701 108H336.568Z"
      fill="white"
    />
  </g>
  <defs>
    <filter
      id="filter0_f_1035_966"
      x="622.514"
      y="-118"
      width="524"
      height="524"
      filterUnits="userSpaceOnUse"
      color-interpolation-filters="sRGB"
    >
      <feFlood flood-opacity="0" result="BackgroundImageFix" />
      <feBlend
        mode="normal"
        in="SourceGraphic"
        in2="BackgroundImageFix"
        result="shape"
      />
      <feGaussianBlur
        stdDeviation="2"
        result="effect1_foregroundBlur_1035_966"
      />
    </filter>
    <filter
      id="filter1_f_1035_966"
      x="674.356"
      y="-73.2676"
      width="434.973"
      height="434.973"
      filterUnits="userSpaceOnUse"
      color-interpolation-filters="sRGB"
    >
      <feFlood flood-opacity="0" result="BackgroundImageFix" />
      <feBlend
        mode="normal"
        in="SourceGraphic"
        in2="BackgroundImageFix"
        result="shape"
      />
      <feGaussianBlur
        stdDeviation="2"
        result="effect1_foregroundBlur_1035_966"
      />
    </filter>
    <filter
      id="filter2_f_1035_966"
      x="723.034"
      y="-26.1797"
      width="340.36"
      height="340.36"
      filterUnits="userSpaceOnUse"
      color-interpolation-filters="sRGB"
    >
      <feFlood flood-opacity="0" result="BackgroundImageFix" />
      <feBlend
        mode="normal"
        in="SourceGraphic"
        in2="BackgroundImageFix"
        result="shape"
      />
      <feGaussianBlur
        stdDeviation="2"
        result="effect1_foregroundBlur_1035_966"
      />
    </filter>
    <filter
      id="filter3_f_1035_966"
      x="768.531"
      y="19.3179"
      width="249.364"
      height="249.364"
      filterUnits="userSpaceOnUse"
      color-interpolation-filters="sRGB"
    >
      <feFlood flood-opacity="0" result="BackgroundImageFix" />
      <feBlend
        mode="normal"
        in="SourceGraphic"
        in2="BackgroundImageFix"
        result="shape"
      />
      <feGaussianBlur
        stdDeviation="2"
        result="effect1_foregroundBlur_1035_966"
      />
    </filter>
    <filter
      id="filter4_i_1035_966"
      x="838.104"
      y="87.8979"
      width="111.62"
      height="111.62"
      filterUnits="userSpaceOnUse"
      color-interpolation-filters="sRGB"
    >
      <feFlood flood-opacity="0" result="BackgroundImageFix" />
      <feBlend
        mode="normal"
        in="SourceGraphic"
        in2="BackgroundImageFix"
        result="shape"
      />
      <feColorMatrix
        in="SourceAlpha"
        type="matrix"
        values="0 0 0 0 0 0 0 0 0 0 0 0 0 0 0 0 0 0 127 0"
        result="hardAlpha"
      />
      <feMorphology
        radius="10"
        operator="erode"
        in="SourceAlpha"
        result="effect1_innerShadow_1035_966"
      />
      <feOffset />
      <feGaussianBlur stdDeviation="25" />
      <feComposite in2="hardAlpha" operator="arithmetic" k2="-1" k3="1" />
      <feColorMatrix
        type="matrix"
        values="0 0 0 0 0.113725 0 0 0 0 0.145098 0 0 0 0 0.235294 0 0 0 1 0"
      />
      <feBlend
        mode="normal"
        in2="shape"
        result="effect1_innerShadow_1035_966"
      />
    </filter>
    <filter
      id="filter5_i_1035_966"
      x="694"
      y="229"
      width="52.5424"
      height="52.5425"
      filterUnits="userSpaceOnUse"
      color-interpolation-filters="sRGB"
    >
      <feFlood flood-opacity="0" result="BackgroundImageFix" />
      <feBlend
        mode="normal"
        in="SourceGraphic"
        in2="BackgroundImageFix"
        result="shape"
      />
      <feColorMatrix
        in="SourceAlpha"
        type="matrix"
        values="0 0 0 0 0 0 0 0 0 0 0 0 0 0 0 0 0 0 127 0"
        result="hardAlpha"
      />
      <feMorphology
        radius="20"
        operator="erode"
        in="SourceAlpha"
        result="effect1_innerShadow_1035_966"
      />
      <feOffset />
      <feGaussianBlur stdDeviation="5" />
      <feComposite in2="hardAlpha" operator="arithmetic" k2="-1" k3="1" />
      <feColorMatrix
        type="matrix"
        values="0 0 0 0 0.694118 0 0 0 0 0.815686 0 0 0 0 0.988235 0 0 0 0.05 0"
      />
      <feBlend
        mode="normal"
        in2="shape"
        result="effect1_innerShadow_1035_966"
      />
    </filter>
    <filter
      id="filter6_i_1035_966"
      x="723.384"
      y="163.616"
      width="33.6858"
      height="33.6858"
      filterUnits="userSpaceOnUse"
      color-interpolation-filters="sRGB"
    >
      <feFlood flood-opacity="0" result="BackgroundImageFix" />
      <feBlend
        mode="normal"
        in="SourceGraphic"
        in2="BackgroundImageFix"
        result="shape"
      />
      <feColorMatrix
        in="SourceAlpha"
        type="matrix"
        values="0 0 0 0 0 0 0 0 0 0 0 0 0 0 0 0 0 0 127 0"
        result="hardAlpha"
      />
      <feMorphology
        radius="20"
        operator="erode"
        in="SourceAlpha"
        result="effect1_innerShadow_1035_966"
      />
      <feOffset />
      <feGaussianBlur stdDeviation="5" />
      <feComposite in2="hardAlpha" operator="arithmetic" k2="-1" k3="1" />
      <feColorMatrix
        type="matrix"
        values="0 0 0 0 0.694118 0 0 0 0 0.815686 0 0 0 0 0.988235 0 0 0 0.05 0"
      />
      <feBlend
        mode="normal"
        in2="shape"
        result="effect1_innerShadow_1035_966"
      />
    </filter>
    <filter
      id="filter7_i_1035_966"
      x="735.202"
      y="26.2129"
      width="54"
      height="54"
      filterUnits="userSpaceOnUse"
      color-interpolation-filters="sRGB"
    >
      <feFlood flood-opacity="0" result="BackgroundImageFix" />
      <feBlend
        mode="normal"
        in="SourceGraphic"
        in2="BackgroundImageFix"
        result="shape"
      />
      <feColorMatrix
        in="SourceAlpha"
        type="matrix"
        values="0 0 0 0 0 0 0 0 0 0 0 0 0 0 0 0 0 0 127 0"
        result="hardAlpha"
      />
      <feMorphology
        radius="20"
        operator="erode"
        in="SourceAlpha"
        result="effect1_innerShadow_1035_966"
      />
      <feOffset />
      <feGaussianBlur stdDeviation="5" />
      <feComposite in2="hardAlpha" operator="arithmetic" k2="-1" k3="1" />
      <feColorMatrix
        type="matrix"
        values="0 0 0 0 0.694118 0 0 0 0 0.815686 0 0 0 0 0.988235 0 0 0 0.05 0"
      />
      <feBlend
        mode="normal"
        in2="shape"
        result="effect1_innerShadow_1035_966"
      />
    </filter>
    <filter
      id="filter8_i_1035_966"
      x="587.436"
      y="-1.7561"
      width="120"
      height="120"
      filterUnits="userSpaceOnUse"
      color-interpolation-filters="sRGB"
    >
      <feFlood flood-opacity="0" result="BackgroundImageFix" />
      <feBlend
        mode="normal"
        in="SourceGraphic"
        in2="BackgroundImageFix"
        result="shape"
      />
      <feColorMatrix
        in="SourceAlpha"
        type="matrix"
        values="0 0 0 0 0 0 0 0 0 0 0 0 0 0 0 0 0 0 127 0"
        result="hardAlpha"
      />
      <feMorphology
        radius="20"
        operator="erode"
        in="SourceAlpha"
        result="effect1_innerShadow_1035_966"
      />
      <feOffset />
      <feGaussianBlur stdDeviation="5" />
      <feComposite in2="hardAlpha" operator="arithmetic" k2="-1" k3="1" />
      <feColorMatrix
        type="matrix"
        values="0 0 0 0 0.694118 0 0 0 0 0.815686 0 0 0 0 0.988235 0 0 0 0.05 0"
      />
      <feBlend
        mode="normal"
        in2="shape"
        result="effect1_innerShadow_1035_966"
      />
    </filter>
    <filter
      id="filter9_i_1035_966"
      x="653.416"
      y="111.162"
      width="61"
      height="61"
      filterUnits="userSpaceOnUse"
      color-interpolation-filters="sRGB"
    >
      <feFlood flood-opacity="0" result="BackgroundImageFix" />
      <feBlend
        mode="normal"
        in="SourceGraphic"
        in2="BackgroundImageFix"
        result="shape"
      />
      <feColorMatrix
        in="SourceAlpha"
        type="matrix"
        values="0 0 0 0 0 0 0 0 0 0 0 0 0 0 0 0 0 0 127 0"
        result="hardAlpha"
      />
      <feMorphology
        radius="20"
        operator="erode"
        in="SourceAlpha"
        result="effect1_innerShadow_1035_966"
      />
      <feOffset />
      <feGaussianBlur stdDeviation="5" />
      <feComposite in2="hardAlpha" operator="arithmetic" k2="-1" k3="1" />
      <feColorMatrix
        type="matrix"
        values="0 0 0 0 0.694118 0 0 0 0 0.815686 0 0 0 0 0.988235 0 0 0 0.05 0"
      />
      <feBlend
        mode="normal"
        in2="shape"
        result="effect1_innerShadow_1035_966"
      />
    </filter>
    <filter
      id="filter10_i_1035_966"
      x="881.634"
      y="223.085"
      width="63"
      height="63"
      filterUnits="userSpaceOnUse"
      color-interpolation-filters="sRGB"
    >
      <feFlood flood-opacity="0" result="BackgroundImageFix" />
      <feBlend
        mode="normal"
        in="SourceGraphic"
        in2="BackgroundImageFix"
        result="shape"
      />
      <feColorMatrix
        in="SourceAlpha"
        type="matrix"
        values="0 0 0 0 0 0 0 0 0 0 0 0 0 0 0 0 0 0 127 0"
        result="hardAlpha"
      />
      <feMorphology
        radius="20"
        operator="erode"
        in="SourceAlpha"
        result="effect1_innerShadow_1035_966"
      />
      <feOffset />
      <feGaussianBlur stdDeviation="5" />
      <feComposite in2="hardAlpha" operator="arithmetic" k2="-1" k3="1" />
      <feColorMatrix
        type="matrix"
        values="0 0 0 0 0.694118 0 0 0 0 0.815686 0 0 0 0 0.988235 0 0 0 0.05 0"
      />
      <feBlend
        mode="normal"
        in2="shape"
        result="effect1_innerShadow_1035_966"
      />
    </filter>
    <filter
      id="filter11_bd_1035_966"
      x="40.0767"
      y="109.552"
      width="565.001"
      height="102.528"
      filterUnits="userSpaceOnUse"
      color-interpolation-filters="sRGB"
    >
      <feFlood flood-opacity="0" result="BackgroundImageFix" />
      <feGaussianBlur in="BackgroundImageFix" stdDeviation="2" />
      <feComposite
        in2="SourceAlpha"
        operator="in"
        result="effect1_backgroundBlur_1035_966"
      />
      <feColorMatrix
        in="SourceAlpha"
        type="matrix"
        values="0 0 0 0 0 0 0 0 0 0 0 0 0 0 0 0 0 0 127 0"
        result="hardAlpha"
      />
      <feOffset />
      <feGaussianBlur stdDeviation="10" />
      <feComposite in2="hardAlpha" operator="out" />
      <feColorMatrix
        type="matrix"
        values="0 0 0 0 0.694118 0 0 0 0 0.815686 0 0 0 0 0.988235 0 0 0 0.4 0"
      />
      <feBlend
        mode="normal"
        in2="effect1_backgroundBlur_1035_966"
        result="effect2_dropShadow_1035_966"
      />
      <feBlend
        mode="normal"
        in="SourceGraphic"
        in2="effect2_dropShadow_1035_966"
        result="shape"
      />
    </filter>
    <radialGradient
      id="paint0_radial_1035_966"
      cx="0"
      cy="0"
      r="1"
      gradientUnits="userSpaceOnUse"
      gradientTransform="translate(891.18 143.161) rotate(132.691) scale(57.5848 51.8246)"
    >
      <stop stop-color="#7488A5" />
      <stop offset="1" stop-color="#05060F" />
    </radialGradient>
    <radialGradient
      id="paint1_radial_1035_966"
      cx="0"
      cy="0"
      r="1"
      gradientUnits="userSpaceOnUse"
      gradientTransform="translate(891.18 143.161) rotate(132.691) scale(57.5848 51.8246)"
    >
      <stop stop-color="#7488A5" />
      <stop offset="1" stop-color="#05060F" />
    </radialGradient>
    <radialGradient
      id="paint2_radial_1035_966"
      cx="0"
      cy="0"
      r="1"
      gradientUnits="userSpaceOnUse"
      gradientTransform="translate(891.18 143.161) rotate(132.691) scale(57.5848 51.8246)"
    >
      <stop stop-color="#7488A5" />
      <stop offset="1" stop-color="#05060F" />
    </radialGradient>
    <radialGradient
      id="paint3_radial_1035_966"
      cx="0"
      cy="0"
      r="1"
      gradientUnits="userSpaceOnUse"
      gradientTransform="translate(891.18 143.161) rotate(132.691) scale(57.5848 51.8246)"
    >
      <stop stop-color="#7488A5" />
      <stop offset="1" stop-color="#05060F" />
    </radialGradient>
    <linearGradient
      id="paint4_linear_1035_966"
      x1="812.22"
      y1="182.972"
      x2="728.174"
      y2="267.018"
      gradientUnits="userSpaceOnUse"
    >
      <stop stop-color="#B1D0FC" />
      <stop offset="1" stop-color="#1D253C" />
    </linearGradient>
    <linearGradient
      id="paint5_linear_1035_966"
      x1="733.781"
      y1="241.121"
      x2="708.179"
      y2="271.96"
      gradientUnits="userSpaceOnUse"
    >
      <stop stop-color="#B1D0FC" />
      <stop offset="1" stop-color="#697C96" />
    </linearGradient>
    <linearGradient
      id="paint6_linear_1035_966"
      x1="816.568"
      y1="112.128"
      x2="745.294"
      y2="187.99"
      gradientUnits="userSpaceOnUse"
    >
      <stop stop-color="#B1D0FC" />
      <stop offset="1" stop-color="#1D253C" />
    </linearGradient>
    <linearGradient
      id="paint7_linear_1035_966"
      x1="746.425"
      y1="171.025"
      x2="729.496"
      y2="185.419"
      gradientUnits="userSpaceOnUse"
    >
      <stop stop-color="#B1D0FC" />
      <stop offset="1" stop-color="#697C96" />
    </linearGradient>
    <linearGradient
      id="paint8_linear_1035_966"
      x1="868.286"
      y1="-41.7394"
      x2="769.242"
      y2="63.6787"
      gradientUnits="userSpaceOnUse"
    >
      <stop stop-color="#B1D0FC" />
      <stop offset="1" stop-color="#1D253C" />
    </linearGradient>
    <linearGradient
      id="paint9_linear_1035_966"
      x1="777.851"
      y1="43.2423"
      x2="763.473"
      y2="71.8855"
      gradientUnits="userSpaceOnUse"
    >
      <stop stop-color="#B1D0FC" />
      <stop offset="1" stop-color="#697C96" />
    </linearGradient>
    <linearGradient
      id="paint10_linear_1035_966"
      x1="776.323"
      y1="-57.1188"
      x2="655.99"
      y2="70.9593"
      gradientUnits="userSpaceOnUse"
    >
      <stop stop-color="#B1D0FC" />
      <stop offset="1" stop-color="#1D253C" />
    </linearGradient>
    <linearGradient
      id="paint11_linear_1035_966"
      x1="664.543"
      y1="39.1324"
      x2="630.654"
      y2="78.7512"
      gradientUnits="userSpaceOnUse"
    >
      <stop stop-color="#B1D0FC" />
      <stop offset="1" stop-color="#697C96" />
    </linearGradient>
    <linearGradient
      id="paint12_linear_1035_966"
      x1="778.103"
      y1="57.358"
      x2="690.167"
      y2="150.954"
      gradientUnits="userSpaceOnUse"
    >
      <stop stop-color="#B1D0FC" />
      <stop offset="1" stop-color="#1D253C" />
    </linearGradient>
    <linearGradient
      id="paint13_linear_1035_966"
      x1="694.329"
      y1="128.682"
      x2="670.115"
      y2="152.987"
      gradientUnits="userSpaceOnUse"
    >
      <stop stop-color="#B1D0FC" />
      <stop offset="1" stop-color="#697C96" />
    </linearGradient>
    <linearGradient
      id="paint14_linear_1035_966"
      x1="998.397"
      y1="178.269"
      x2="918.792"
      y2="262.997"
      gradientUnits="userSpaceOnUse"
    >
      <stop stop-color="#B1D0FC" />
      <stop offset="1" stop-color="#1D253C" />
    </linearGradient>
    <linearGradient
      id="paint15_linear_1035_966"
      x1="925.378"
      y1="242.737"
      x2="902.569"
      y2="270.21"
      gradientUnits="userSpaceOnUse"
    >
      <stop stop-color="#B1D0FC" />
      <stop offset="1" stop-color="#697C96" />
    </linearGradient>
    <linearGradient
      id="paint16_linear_1035_966"
      x1="321.5"
      y1="111"
      x2="321.5"
      y2="212"
      gradientUnits="userSpaceOnUse"
    >
      <stop stop-color="#05060F" />
      <stop offset="0.505" stop-color="#B1D0FC" />
      <stop offset="1" stop-color="#05060F" />
    </linearGradient>
    <clipPath id="clip0_1035_966">
      <rect width="986" height="288" fill="white" />
    </clipPath>
    <clipPath id="clip1_1035_966">
      <rect
        width="29"
        height="29"
        fill="white"
        transform="translate(705.771 240.771)"
      />
    </clipPath>
    <clipPath id="clip2_1035_966">
      <rect
        width="18"
        height="17"
        fill="white"
        transform="translate(731.227 171.959)"
      />
    </clipPath>
  </defs>
</svg>
